<svg width="15" height="15" viewBox="0 0 26 26" fill="none" xmlns="http://www.w3.org/2000/svg">
    <path fill-rule="evenodd" clip-rule="evenodd" d="M15.2602 19.0192L15.2806 13.7359L25.2869 13.7342V18.0826C25.2869 19.0243 25.0982 19.9568 24.7314 20.8268C24.3646 21.6968 23.827 22.4873 23.1493 23.1532C22.4716 23.819 21.6671 24.3471 20.7816 24.7074C19.8962 25.0677 18.9472 25.2531 17.9888 25.253H9.38794C8.8993 25.2982 8.40741 25.2982 7.91877 25.253H7.90814C5.99933 25.253 4.16869 24.5079 2.81895 23.1816C1.46921 21.8553 0.710938 20.0565 0.710938 18.1808V0.710938H4.24316C5.96068 0.710938 7.60784 1.38133 8.82231 2.5747C10.0368 3.76806 10.7191 5.38663 10.7191 7.0743V15.8388C10.7191 19.2758 15.2602 19.0192 15.2602 19.0192ZM22.5325 22.5491C23.7377 21.3648 24.4157 19.7591 24.4178 18.0843V14.5891H16.1462L16.1285 19.0244C16.1285 20.2315 16.0046 21.8013 15.0381 23.2032C14.7248 23.6556 14.3444 24.0596 13.9097 24.4016H17.9888C19.6933 24.3995 21.3273 23.7333 22.5325 22.5491ZM16.9843 2.38775C18.0765 1.31462 19.5579 0.711687 21.1025 0.711688H25.287V9.8658H15.278V6.43409C15.2782 4.91633 15.892 3.46089 16.9843 2.38775Z" fill="white"/>
</svg>
