<svg width="20" height="20" viewBox="0 0 20 20" fill="none" xmlns="http://www.w3.org/2000/svg">
<path d="M15.6 7.90234H9.30032C8.52716 7.90234 7.90039 8.52911 7.90039 9.30228V15.602C7.90039 16.3751 8.52716 17.0019 9.30032 17.0019H15.6C16.3732 17.0019 16.9999 16.3751 16.9999 15.602V9.30228C16.9999 8.52911 16.3732 7.90234 15.6 7.90234Z" stroke="#999999" stroke-opacity="0.75" stroke-width="1.5" stroke-linecap="round" stroke-linejoin="round"/>
<path d="M5.0999 12.0996H4.39993C4.02865 12.0996 3.67257 11.9521 3.41003 11.6895C3.14749 11.427 3 11.0709 3 10.6996V4.39993C3 4.02865 3.14749 3.67257 3.41003 3.41003C3.67257 3.14749 4.02865 3 4.39993 3H10.6996C11.0709 3 11.427 3.14749 11.6895 3.41003C11.9521 3.67257 12.0996 4.02865 12.0996 4.39993V5.0999" stroke="#999999" stroke-opacity="0.75" stroke-width="1.5" stroke-linecap="round" stroke-linejoin="round"/>
</svg>
