<svg width="20" height="20" viewBox="0 0 20 20" fill="none" xmlns="http://www.w3.org/2000/svg">
<path d="M17.3175 4.5574C17.3757 4.61545 17.4219 4.68442 17.4534 4.76035C17.4849 4.83629 17.5011 4.91769 17.5011 4.9999C17.5011 5.08211 17.4849 5.16351 17.4534 5.23944C17.4219 5.31537 17.3757 5.38434 17.3175 5.4424L8.5675 14.1924C8.50944 14.2506 8.44047 14.2968 8.36454 14.3283C8.28861 14.3598 8.2072 14.376 8.125 14.376C8.04279 14.376 7.96139 14.3598 7.88545 14.3283C7.80952 14.2968 7.74055 14.2506 7.6825 14.1924L3.3075 9.8174C3.19014 9.70004 3.12421 9.54087 3.12421 9.3749C3.12421 9.20893 3.19014 9.04975 3.3075 8.9324C3.42485 8.81504 3.58403 8.74911 3.75 8.74911C3.91597 8.74911 4.07514 8.81504 4.1925 8.9324L8.125 12.8661L16.4325 4.5574C16.4906 4.49919 16.5595 4.45301 16.6355 4.42151C16.7114 4.39 16.7928 4.37378 16.875 4.37378C16.9572 4.37378 17.0386 4.39 17.1145 4.42151C17.1905 4.45301 17.2594 4.49919 17.3175 4.5574Z" fill="#999999"/>
</svg>
