<svg width="224" height="225" viewBox="0 0 224 225" fill="none" xmlns="http://www.w3.org/2000/svg">
<g clip-path="url(#clip0_2617_111)">
<path fill-rule="evenodd" clip-rule="evenodd" d="M122.945 28.6455C147.342 24.9531 171.177 37.5836 189.403 54.2171C208.554 71.6955 222.802 94.765 223.785 120.675C224.801 147.474 213.768 173.572 194.641 192.371C175.671 211.016 149.354 216.615 122.945 219.787C91.4266 223.574 56.1251 232.191 31.6709 211.949C6.14919 190.823 -6.35651 152.395 3.20708 120.675C11.815 92.1244 50.3155 89.8609 73.9588 71.6888C91.8751 57.9186 100.603 32.0269 122.945 28.6455Z" fill="#F4F2F9"/>
<g clip-path="url(#clip1_2617_111)">
<g style="mix-blend-mode:color-burn" opacity="0.5">
<path d="M58.2811 198.381C58.3809 198.474 58.0355 199.021 57.3179 199.745C56.372 200.674 55.325 201.495 54.1966 202.192C53.4052 202.687 52.5834 203.132 51.7362 203.524C50.8003 203.958 49.8427 204.344 48.8671 204.679C47.5848 205.122 46.2788 205.494 44.9553 205.792C43.0905 206.212 41.1967 206.491 39.2899 206.626C41.1842 206.426 43.0562 206.054 44.8824 205.513C46.1672 205.13 47.425 204.662 48.6472 204.111C49.6818 203.643 50.5357 203.193 51.345 202.745C52.1544 202.297 52.8922 201.852 53.68 201.358C54.9533 200.561 56.0675 199.784 56.8755 199.215C57.6835 198.646 58.1812 198.288 58.2811 198.381Z" fill="url(#paint0_linear_2617_111)"/>
</g>
<path d="M97.7822 37.1985H95.3663C75.1976 37.1985 58.8112 53.5943 58.7991 73.7536V90.8711C58.7995 91.0168 58.8368 91.1601 58.9075 91.2875C58.9783 91.4148 59.0802 91.5222 59.2037 91.5995L61.9744 93.3261C62.0982 93.403 62.2003 93.5101 62.2712 93.6375C62.342 93.7648 62.3792 93.9081 62.3792 94.0538C62.3792 94.1996 62.342 94.3429 62.2712 94.4702C62.2003 94.5975 62.0982 94.7047 61.9744 94.7816L59.2037 96.5082C59.0801 96.5851 58.9781 96.6922 58.9074 96.8193C58.8366 96.9465 58.7993 97.0896 58.7991 97.2352V99.585C58.7991 99.8125 58.8895 100.031 59.0503 100.192C59.2112 100.353 59.4294 100.443 59.657 100.443H69.0601C69.2877 100.443 69.5059 100.353 69.6668 100.192C69.8276 100.031 69.918 99.8125 69.918 99.585V73.7617C69.918 59.7264 81.3459 48.3026 95.3704 48.3053H97.7863C111.801 48.3053 123.225 59.7305 123.22 73.7644V114.623H134.332V73.7631C134.337 53.6105 117.944 37.2012 97.7822 37.1985Z" fill="#1A1A1A"/>
<path style="mix-blend-mode:color-burn" d="M123.217 74.4456L123.212 114.628L134.324 114.631L134.327 74.4456H123.217Z" fill="url(#paint1_linear_2617_111)"/>
<path d="M112.116 114.627V114.616H81.0059V114.621L112.116 114.627Z" fill="#2E5FB7"/>
<path d="M113.536 127.575C113.662 127.574 113.787 127.557 113.908 127.523C113.6 127.608 113.272 127.586 112.978 127.46C112.684 127.334 112.441 127.113 112.29 126.831C112.411 127.056 112.591 127.243 112.811 127.374C113.03 127.505 113.281 127.574 113.536 127.575Z" fill="#2E5FB7"/>
<path d="M114.62 127.066C114.67 127.014 114.722 126.961 114.774 126.91C114.722 126.961 114.67 127.012 114.62 127.066C114.595 127.096 114.569 127.124 114.542 127.152C114.569 127.128 114.595 127.1 114.62 127.066Z" fill="#2E5FB7"/>
<path d="M79.5869 194.985C79.3997 194.984 79.2144 195.021 79.0416 195.093C78.8688 195.165 78.7121 195.271 78.5806 195.404C78.5528 195.431 78.5266 195.459 78.5024 195.489C77.7035 196.344 76.6046 196.856 75.4363 196.918C75.3554 196.918 75.2745 196.918 75.1935 196.918C74.5915 196.928 73.9934 196.818 73.4342 196.595C72.875 196.372 72.3658 196.04 71.9364 195.617C71.5069 195.195 71.1659 194.692 70.933 194.137C70.7002 193.581 70.5803 192.985 70.5803 192.383C70.5803 191.781 70.7002 191.185 70.933 190.63C71.1659 190.074 71.5069 189.571 71.9364 189.149C72.3658 188.727 72.875 188.395 73.4342 188.171C73.9934 187.948 74.5915 187.839 75.1935 187.849C75.3548 187.849 75.5161 187.857 75.6764 187.875C75.8336 187.891 75.9899 187.916 76.1445 187.949C76.2968 187.981 76.4472 188.021 76.595 188.07C77.3231 188.307 77.9792 188.725 78.5024 189.284C78.5266 189.314 78.5528 189.342 78.5806 189.369C78.7786 189.569 79.0317 189.706 79.3077 189.762C79.5837 189.818 79.8701 189.791 80.1304 189.683C80.3907 189.576 80.6133 189.394 80.7697 189.159C80.926 188.925 81.0092 188.65 81.0086 188.368V176.841H69.4688C69.1874 176.841 68.9122 176.757 68.6783 176.601C68.4443 176.445 68.2621 176.222 68.1547 175.962C68.0474 175.702 68.0197 175.416 68.0752 175.14C68.1307 174.864 68.2669 174.611 68.4666 174.413C68.4949 174.386 68.5232 174.36 68.5529 174.336C69.1016 173.821 69.5138 173.179 69.7524 172.466C69.991 171.753 70.0486 170.991 69.9198 170.25C69.7911 169.509 69.4801 168.812 69.0149 168.221C68.5497 167.63 67.9449 167.165 67.2549 166.866C66.5649 166.567 65.8113 166.444 65.0621 166.508C64.3129 166.573 63.5915 166.823 62.9628 167.236C62.3342 167.648 61.8181 168.211 61.4609 168.873C61.1038 169.535 60.9168 170.275 60.9168 171.027C60.9168 171.108 60.9168 171.189 60.9168 171.27C60.9786 172.438 61.4906 173.537 62.3453 174.336C62.375 174.36 62.4033 174.386 62.4303 174.413C62.6305 174.611 62.7673 174.864 62.8232 175.14C62.8791 175.416 62.8517 175.702 62.7444 175.962C62.6371 176.223 62.4547 176.445 62.2206 176.602C61.9864 176.758 61.711 176.841 61.4294 176.841H49.8963V203.279C49.9006 204.514 50.3932 205.696 51.2667 206.569C52.1401 207.442 53.3234 207.934 54.5581 207.937H81.0059V196.4C81.0041 196.024 80.8539 195.665 80.5881 195.4C80.3222 195.134 79.9623 194.985 79.5869 194.985Z" fill="#2E5FB7"/>
<path d="M61.4361 176.84C61.7177 176.841 61.9931 176.758 62.2272 176.601C62.4614 176.445 62.6438 176.223 62.7511 175.962C62.8584 175.702 62.8858 175.416 62.8299 175.14C62.774 174.864 62.6372 174.61 62.437 174.412C62.41 174.385 62.3817 174.36 62.352 174.336C61.4973 173.537 60.9853 172.438 60.9235 171.27C60.9235 171.189 60.9235 171.108 60.9235 171.027C60.9235 170.275 61.1105 169.534 61.4676 168.873C61.8248 168.211 62.3409 167.648 62.9696 167.236C63.5982 166.823 64.3196 166.573 65.0688 166.508C65.818 166.444 66.5716 166.566 67.2616 166.865C67.9516 167.164 68.5564 167.63 69.0216 168.221C69.4868 168.812 69.7978 169.509 69.9265 170.25C70.0553 170.991 69.9978 171.752 69.7591 172.466C69.5205 173.179 69.1083 173.821 68.5596 174.336C68.5299 174.36 68.5016 174.385 68.4746 174.412C68.2744 174.61 68.1376 174.864 68.0817 175.14C68.0257 175.416 68.0532 175.702 68.1605 175.962C68.2678 176.223 68.4502 176.445 68.6843 176.601C68.9185 176.758 69.1939 176.841 69.4755 176.84H81.0126V165.302C81.0127 165.021 81.0962 164.746 81.2527 164.512C81.4092 164.278 81.6316 164.096 81.8917 163.989C82.1518 163.882 82.4378 163.854 82.7136 163.91C82.9893 163.965 83.2424 164.102 83.4407 164.301C83.4682 164.329 83.4943 164.357 83.5189 164.387C84.2602 165.177 85.2595 165.675 86.3361 165.792C87.4127 165.909 88.4956 165.637 89.389 165.025C90.2825 164.413 90.9276 163.501 91.2077 162.455C91.4878 161.409 91.3844 160.297 90.9162 159.321C90.8609 159.206 90.8002 159.096 90.7368 158.988C90.718 158.957 90.7004 158.926 90.6815 158.896C90.6343 158.821 90.5858 158.748 90.5345 158.676C90.4832 158.605 90.4387 158.541 90.3888 158.481C89.985 157.967 89.4751 157.547 88.8938 157.25C88.3126 156.952 87.6739 156.783 87.0214 156.755C86.3689 156.727 85.7181 156.841 85.1136 157.088C84.509 157.335 83.965 157.71 83.5189 158.187C83.4946 158.216 83.4685 158.245 83.4407 158.272C83.2662 158.447 83.049 158.574 82.8105 158.639C82.5721 158.705 82.3207 158.707 82.0812 158.645C81.8417 158.583 81.6224 158.46 81.4452 158.288C81.2679 158.115 81.1388 157.9 81.0706 157.662C81.0338 157.535 81.0147 157.403 81.014 157.271V145.732H69.4688C69.1872 145.732 68.9118 145.815 68.6776 145.971C68.4434 146.128 68.2611 146.35 68.1538 146.61C68.0464 146.871 68.019 147.157 68.0749 147.433C68.1309 147.709 68.2677 147.962 68.4679 148.16C68.4949 148.187 68.5232 148.213 68.5529 148.238C69.2165 148.861 69.6778 149.668 69.8768 150.556C70.0759 151.443 70.0034 152.37 69.6689 153.216C69.3344 154.062 68.7533 154.788 68.001 155.299C67.2487 155.811 66.3601 156.084 65.4504 156.084C64.5407 156.084 63.6521 155.811 62.8998 155.299C62.1475 154.788 61.5664 154.062 61.2319 153.216C60.8974 152.37 60.8249 151.443 61.024 150.556C61.223 149.668 61.6843 148.861 62.3479 148.238C62.3776 148.213 62.4059 148.187 62.4329 148.16C62.6331 147.962 62.7699 147.709 62.8259 147.433C62.8818 147.157 62.8544 146.871 62.747 146.61C62.6397 146.35 62.4574 146.128 62.2232 145.971C61.989 145.815 61.7136 145.732 61.432 145.732H49.903V176.84H61.4361Z" fill="#2E5FB7"/>
<path d="M92.8317 176.863C93.0829 176.915 93.3153 177.034 93.5043 177.208C93.6933 177.381 93.8318 177.602 93.9051 177.848C93.9784 178.094 93.9838 178.355 93.9206 178.604C93.8575 178.852 93.7283 179.079 93.5466 179.26C93.5192 179.288 93.4903 179.314 93.4603 179.339C92.7977 179.958 92.336 180.762 92.1347 181.646C91.9335 182.531 92.0019 183.455 92.3311 184.3C92.6604 185.145 93.2354 185.873 93.9819 186.388C94.7284 186.903 95.6122 187.183 96.5192 187.191C97.4262 187.199 98.3148 186.935 99.0703 186.433C99.8258 185.931 100.414 185.214 100.758 184.375C101.102 183.536 101.187 182.612 101.001 181.725C100.815 180.837 100.368 180.025 99.7165 179.394C99.6989 179.375 99.6801 179.356 99.6612 179.339C99.6312 179.314 99.6029 179.288 99.5762 179.26C99.5357 179.218 99.4979 179.173 99.4629 179.125C99.2987 178.916 99.1966 178.665 99.1683 178.401C99.14 178.137 99.1866 177.87 99.3028 177.63C99.419 177.391 99.6001 177.19 99.8254 177.048C100.051 176.907 100.311 176.832 100.577 176.832H112.116V165.294C112.116 165.104 112.078 164.916 112.004 164.742C111.895 164.485 111.713 164.266 111.48 164.111C111.247 163.957 110.974 163.875 110.695 163.875C110.483 163.872 110.272 163.919 110.08 164.01C109.936 164.077 109.803 164.168 109.689 164.279C109.662 164.308 109.636 164.336 109.611 164.366C109.429 164.558 109.232 164.735 109.02 164.893C108.346 165.398 107.545 165.706 106.707 165.781C105.868 165.856 105.025 165.697 104.272 165.32C103.519 164.944 102.886 164.365 102.443 163.648C102.001 162.932 101.767 162.107 101.767 161.265C101.767 161.11 101.775 160.955 101.791 160.801C101.865 160.09 102.105 159.406 102.493 158.805C102.881 158.205 103.406 157.705 104.024 157.346C104.642 156.986 105.336 156.778 106.05 156.739C106.764 156.699 107.477 156.828 108.131 157.117C108.2 157.148 108.266 157.18 108.337 157.214C108.541 157.317 108.736 157.435 108.923 157.567C109.169 157.743 109.398 157.944 109.605 158.165C109.631 158.193 109.656 158.223 109.683 158.25C109.786 158.353 109.904 158.439 110.033 158.506C110.235 158.613 110.461 158.669 110.69 158.668C110.899 158.668 111.106 158.622 111.296 158.533C111.486 158.443 111.653 158.313 111.786 158.151C111.815 158.116 111.842 158.08 111.867 158.042C112.026 157.808 112.111 157.532 112.11 157.249V145.711H100.572C100.29 145.711 100.015 145.628 99.7805 145.472C99.5463 145.315 99.364 145.093 99.2567 144.832C99.1493 144.572 99.1219 144.286 99.1778 144.01C99.2338 143.734 99.3706 143.48 99.5708 143.282C99.5978 143.256 99.6261 143.23 99.6558 143.204C100.319 142.582 100.78 141.775 100.979 140.888C101.177 140 101.105 139.074 100.77 138.228C100.436 137.383 99.8549 136.657 99.1029 136.146C98.3509 135.635 97.4626 135.362 96.5533 135.362C95.644 135.362 94.7557 135.635 94.0037 136.146C93.2517 136.657 92.6708 137.383 92.3363 138.228C92.0018 139.074 91.9292 140 92.128 140.888C92.3267 141.775 92.7876 142.582 93.4508 143.204C93.4778 143.227 93.5034 143.25 93.5291 143.276H93.5372C93.7368 143.474 93.873 143.727 93.9285 144.003C93.9841 144.279 93.9564 144.565 93.849 144.825C93.7416 145.085 93.5594 145.308 93.3255 145.464C93.0915 145.621 92.8163 145.704 92.5349 145.704H80.9978V157.242C80.9981 157.375 81.0167 157.506 81.0531 157.633C81.1213 157.871 81.2504 158.087 81.4277 158.259C81.6049 158.432 81.8241 158.555 82.0636 158.617C82.3031 158.678 82.5546 158.676 82.793 158.611C83.0315 158.545 83.2487 158.418 83.4231 158.243C83.4506 158.216 83.4767 158.188 83.5014 158.158C83.9475 157.681 84.4915 157.306 85.0961 157.059C85.7006 156.812 86.3514 156.699 87.0039 156.727C87.6564 156.755 88.2951 156.923 88.8763 157.221C89.4575 157.519 89.9675 157.939 90.3713 158.452C90.4212 158.516 90.4711 158.587 90.517 158.648C90.5628 158.708 90.6168 158.792 90.664 158.868C90.6829 158.897 90.7004 158.928 90.7193 158.959C90.7827 159.067 90.8434 159.178 90.8987 159.293C91.3669 160.269 91.4702 161.381 91.1902 162.427C90.9101 163.473 90.265 164.384 89.3715 164.996C88.4781 165.608 87.3952 165.88 86.3186 165.763C85.242 165.647 84.2427 165.148 83.5014 164.359C83.4768 164.329 83.4506 164.3 83.4231 164.273C83.2251 164.072 82.9718 163.936 82.6957 163.88C82.4196 163.824 82.1331 163.851 81.8727 163.959C81.6123 164.066 81.3898 164.249 81.2335 164.483C81.0772 164.718 80.9942 164.993 80.9951 165.275V176.84H92.5322C92.6326 176.838 92.733 176.845 92.8317 176.863Z" fill="#2E5FB7"/>
<path d="M112.439 195.501C112.481 195.45 112.526 195.402 112.574 195.357C112.835 195.117 113.176 194.984 113.531 194.984C113.718 194.985 113.903 195.022 114.075 195.094C114.248 195.166 114.405 195.271 114.537 195.404C114.564 195.431 114.589 195.459 114.615 195.489C115.129 196.038 115.772 196.45 116.485 196.689C117.198 196.928 117.96 196.986 118.701 196.857C119.442 196.729 120.139 196.418 120.73 195.953C121.321 195.487 121.787 194.883 122.086 194.192C122.385 193.502 122.508 192.749 122.443 191.999C122.379 191.25 122.129 190.528 121.716 189.9C121.303 189.271 120.74 188.755 120.078 188.398C119.416 188.041 118.676 187.854 117.924 187.854C117.723 187.855 117.522 187.868 117.322 187.895C116.286 188.032 115.329 188.525 114.615 189.288C114.589 189.318 114.564 189.346 114.537 189.373C114.339 189.572 114.085 189.709 113.81 189.764C113.534 189.82 113.248 189.792 112.988 189.685C112.728 189.578 112.505 189.396 112.349 189.162C112.192 188.928 112.109 188.653 112.109 188.372V176.84H100.57C100.305 176.841 100.045 176.916 99.8196 177.057C99.5946 177.199 99.4137 177.4 99.2976 177.639C99.1816 177.878 99.1349 178.145 99.1629 178.409C99.1909 178.673 99.2925 178.924 99.4561 179.133C99.4911 179.181 99.529 179.226 99.5694 179.268C99.5964 179.295 99.6247 179.322 99.6544 179.347C99.6841 179.371 99.6922 179.383 99.7097 179.402C100.36 180.033 100.806 180.844 100.991 181.731C101.176 182.618 101.091 183.539 100.747 184.377C100.402 185.216 99.8152 185.931 99.0606 186.432C98.3059 186.934 97.4184 187.197 96.5126 187.189C95.6067 187.181 94.724 186.902 93.9783 186.387C93.2326 185.873 92.6581 185.147 92.3289 184.303C91.9997 183.459 91.9309 182.536 92.1314 181.652C92.3318 180.769 92.7923 179.966 93.4535 179.347C93.4832 179.322 93.5115 179.295 93.5399 179.268C93.7215 179.087 93.8508 178.86 93.9139 178.612C93.977 178.363 93.9716 178.102 93.8983 177.856C93.825 177.611 93.6865 177.389 93.4975 177.216C93.3086 177.042 93.0761 176.923 92.8249 176.871C92.7304 176.852 92.6342 176.842 92.5376 176.842H81.0005V188.38C81.0011 188.662 80.9179 188.937 80.7616 189.171C80.6052 189.405 80.3826 189.588 80.1223 189.695C79.862 189.802 79.5756 189.83 79.2996 189.774C79.0236 189.718 78.7705 189.581 78.5725 189.381C78.5447 189.354 78.5185 189.326 78.4943 189.296C77.9711 188.737 77.315 188.319 76.5869 188.082C76.4391 188.033 76.2887 187.993 76.1364 187.961C75.9818 187.928 75.8255 187.903 75.6683 187.886C75.508 187.869 75.3467 187.861 75.1854 187.861C74.5834 187.85 73.9853 187.96 73.4261 188.183C72.8669 188.406 72.3577 188.739 71.9282 189.161C71.4988 189.583 71.1578 190.086 70.9249 190.642C70.6921 191.197 70.5722 191.793 70.5722 192.395C70.5722 192.997 70.6921 193.593 70.9249 194.149C71.1578 194.704 71.4988 195.207 71.9282 195.629C72.3577 196.051 72.8669 196.384 73.4261 196.607C73.9853 196.83 74.5834 196.94 75.1854 196.929C75.2663 196.929 75.3473 196.929 75.4282 196.929C76.5965 196.868 77.6954 196.356 78.4943 195.501C78.5185 195.471 78.5447 195.443 78.5725 195.416C78.7705 195.216 79.0236 195.079 79.2996 195.023C79.5756 194.967 79.862 194.995 80.1223 195.102C80.3826 195.209 80.6052 195.392 80.7616 195.626C80.9179 195.86 81.0011 196.135 81.0005 196.417V207.947H112.109V196.399C112.111 196.071 112.228 195.753 112.439 195.501Z" fill="#2E5FB7"/>
<path d="M92.5444 145.725C92.8258 145.726 93.1009 145.642 93.3349 145.486C93.5688 145.329 93.7511 145.107 93.8584 144.847C93.9658 144.587 93.9935 144.301 93.938 144.025C93.8825 143.749 93.7462 143.496 93.5466 143.297H93.5385C93.5129 143.272 93.4872 143.249 93.4603 143.226C92.7966 142.604 92.3353 141.796 92.1363 140.909C91.9373 140.021 92.0097 139.094 92.3442 138.248C92.6787 137.402 93.2599 136.676 94.0121 136.165C94.7644 135.653 95.653 135.38 96.5627 135.38C97.4724 135.38 98.3611 135.653 99.1134 136.165C99.8656 136.676 100.447 137.402 100.781 138.248C101.116 139.094 101.188 140.021 100.989 140.909C100.79 141.796 100.329 142.604 99.6652 143.226C99.6355 143.252 99.6072 143.277 99.5802 143.304C99.3807 143.502 99.2445 143.755 99.1889 144.031C99.1334 144.307 99.1609 144.593 99.2681 144.853C99.3753 145.113 99.5573 145.336 99.7911 145.492C100.025 145.649 100.3 145.732 100.581 145.732H112.12V134.194C112.119 133.963 112.174 133.735 112.282 133.531C112.389 133.326 112.545 133.151 112.736 133.021C112.926 132.89 113.146 132.808 113.376 132.782C113.605 132.757 113.838 132.787 114.053 132.872C114.238 132.943 114.406 133.052 114.546 133.193C114.573 133.22 114.599 133.248 114.624 133.278C115.246 133.942 116.053 134.404 116.941 134.603C117.829 134.803 118.756 134.73 119.602 134.396C120.448 134.061 121.174 133.48 121.685 132.727C122.196 131.974 122.469 131.085 122.468 130.175C122.468 129.944 122.45 129.713 122.416 129.485C122.382 129.263 122.331 129.044 122.265 128.829C122.035 128.093 121.622 127.427 121.064 126.895C120.506 126.363 119.822 125.983 119.075 125.789C118.329 125.595 117.546 125.594 116.799 125.787C116.053 125.98 115.368 126.361 114.809 126.892L114.785 126.915C114.732 126.966 114.681 127.019 114.631 127.071C114.606 127.101 114.58 127.129 114.553 127.158C114.397 127.315 114.206 127.433 113.996 127.503C113.786 127.573 113.563 127.593 113.344 127.562C113.125 127.53 112.916 127.448 112.734 127.321C112.553 127.195 112.403 127.027 112.298 126.833C112.185 126.626 112.126 126.394 112.126 126.158V114.631H81.018V126.164C81.0183 126.445 80.9349 126.72 80.7785 126.954C80.6221 127.188 80.3997 127.37 80.1396 127.478C79.8795 127.585 79.5933 127.613 79.3174 127.557C79.0415 127.502 78.7884 127.366 78.59 127.166C78.5625 127.138 78.5364 127.11 78.5118 127.08C77.7128 126.225 76.6139 125.714 75.4458 125.652C75.3648 125.652 75.2839 125.652 75.2029 125.652C74.4503 125.652 73.7093 125.838 73.0468 126.195C72.3842 126.552 71.8208 127.068 71.4075 127.697C70.9941 128.326 70.7438 129.048 70.679 129.798C70.6141 130.548 70.7369 131.302 71.0362 131.993C71.3355 132.683 71.8019 133.288 72.3934 133.754C72.9848 134.219 73.6828 134.53 74.4244 134.659C75.166 134.787 75.9279 134.729 76.6414 134.49C77.355 134.25 77.9977 133.837 78.5118 133.287C78.5361 133.257 78.5622 133.229 78.59 133.202C78.788 133.002 79.0411 132.865 79.3171 132.809C79.5931 132.753 79.8795 132.781 80.1398 132.888C80.4002 132.995 80.6227 133.178 80.7791 133.412C80.9355 133.646 81.0186 133.922 81.018 134.203V145.742H92.5552L92.5444 145.725Z" fill="#2E5FB7"/>
<path d="M112.287 126.831C112.393 127.026 112.542 127.192 112.724 127.319C112.906 127.445 113.114 127.527 113.333 127.558C113.552 127.59 113.775 127.57 113.985 127.5C114.195 127.431 114.386 127.313 114.542 127.156C114.569 127.128 114.595 127.1 114.62 127.07C114.67 127.016 114.722 126.965 114.774 126.914L114.798 126.891C115.357 126.359 116.042 125.979 116.788 125.786C117.535 125.593 118.318 125.593 119.064 125.787C119.811 125.981 120.495 126.362 121.053 126.894C121.611 127.426 122.025 128.092 122.254 128.828C122.32 129.042 122.371 129.261 122.405 129.483C122.44 129.712 122.457 129.943 122.458 130.174C122.458 131.084 122.186 131.973 121.674 132.726C121.163 133.478 120.437 134.06 119.591 134.394C118.745 134.729 117.818 134.801 116.93 134.602C116.043 134.403 115.235 133.941 114.614 133.276C114.588 133.247 114.562 133.218 114.535 133.191C114.337 132.992 114.084 132.856 113.808 132.8C113.533 132.745 113.247 132.772 112.986 132.879C112.726 132.987 112.504 133.169 112.348 133.402C112.191 133.636 112.107 133.911 112.107 134.192V145.731H123.646C123.832 145.731 124.017 145.768 124.189 145.839C124.362 145.91 124.518 146.015 124.65 146.147C124.782 146.279 124.886 146.435 124.957 146.608C125.029 146.78 125.065 146.965 125.065 147.151C125.065 147.211 125.061 147.27 125.053 147.329C125.014 147.643 124.872 147.934 124.648 148.157C124.621 148.184 124.591 148.21 124.563 148.236C123.829 148.922 123.343 149.833 123.185 150.826C123.147 151.063 123.128 151.304 123.128 151.545C123.128 152.747 123.606 153.901 124.456 154.751C125.307 155.602 126.46 156.08 127.663 156.08C128.866 156.08 130.019 155.602 130.87 154.751C131.72 153.901 132.198 152.747 132.198 151.545C132.198 151.462 132.198 151.381 132.198 151.3C132.137 150.133 131.625 149.034 130.771 148.236L130.684 148.157C130.485 147.959 130.349 147.706 130.293 147.43C130.238 147.154 130.265 146.868 130.373 146.608C130.48 146.348 130.662 146.125 130.896 145.969C131.13 145.813 131.405 145.729 131.687 145.729H143.221V119.299C143.218 118.064 142.726 116.881 141.853 116.008C140.981 115.134 139.798 114.641 138.563 114.636H112.113V126.164C112.115 126.397 112.175 126.627 112.287 126.831Z" fill="#2E5FB7"/>
<path d="M130.266 175.415C130.266 175.228 130.303 175.042 130.375 174.869C130.447 174.696 130.552 174.539 130.685 174.407C130.713 174.38 130.741 174.355 130.771 174.33C131.224 173.907 131.585 173.394 131.832 172.825C132.078 172.256 132.205 171.642 132.205 171.021C132.205 170.943 132.205 170.865 132.205 170.788C132.197 170.633 132.18 170.481 132.157 170.331C132.135 170.181 132.105 170.033 132.067 169.887C131.816 168.913 131.248 168.051 130.453 167.436C129.658 166.82 128.681 166.486 127.675 166.486C126.67 166.486 125.693 166.82 124.898 167.436C124.103 168.051 123.535 168.913 123.283 169.887C123.247 170.033 123.216 170.18 123.193 170.331C123.17 170.482 123.155 170.633 123.147 170.788C123.147 170.865 123.147 170.943 123.147 171.021C123.147 171.183 123.156 171.344 123.172 171.504C123.262 172.353 123.589 173.158 124.117 173.828C124.258 174.007 124.412 174.175 124.578 174.33C124.608 174.355 124.636 174.38 124.663 174.407C124.863 174.607 124.999 174.863 125.054 175.141C125.109 175.419 125.08 175.707 124.971 175.968C124.933 176.052 124.888 176.132 124.836 176.208C124.706 176.401 124.53 176.559 124.325 176.668C124.12 176.777 123.891 176.834 123.658 176.834H112.12V188.372C112.119 188.654 112.202 188.929 112.359 189.163C112.515 189.398 112.738 189.58 112.998 189.687C113.258 189.795 113.545 189.822 113.821 189.766C114.097 189.71 114.35 189.573 114.548 189.373C114.575 189.346 114.6 189.318 114.626 189.288C115.34 188.528 116.294 188.039 117.328 187.902C117.527 187.875 117.728 187.862 117.929 187.861C118.681 187.861 119.421 188.048 120.082 188.406C120.743 188.763 121.306 189.279 121.718 189.907C122.13 190.536 122.38 191.257 122.445 192.006C122.509 192.755 122.386 193.508 122.087 194.198C121.788 194.887 121.323 195.492 120.732 195.957C120.142 196.422 119.445 196.733 118.704 196.861C117.964 196.99 117.203 196.933 116.49 196.694C115.777 196.456 115.135 196.044 114.62 195.496C114.595 195.466 114.569 195.438 114.542 195.411C114.285 195.151 113.936 195 113.57 194.991C113.204 194.983 112.849 195.116 112.58 195.364C112.532 195.409 112.487 195.457 112.445 195.508C112.235 195.762 112.121 196.082 112.121 196.412V207.946H138.559C139.794 207.944 140.977 207.452 141.85 206.58C142.723 205.707 143.214 204.524 143.217 203.29V176.837H131.687C131.5 176.837 131.315 176.8 131.143 176.729C130.97 176.657 130.813 176.552 130.681 176.42C130.55 176.288 130.445 176.132 130.374 175.959C130.302 175.786 130.266 175.601 130.266 175.415Z" fill="#2E5FB7"/>
<path d="M122.467 192.389C122.467 192.985 122.35 193.575 122.122 194.125C121.894 194.675 121.56 195.175 121.138 195.596C121.772 194.961 122.204 194.153 122.379 193.274C122.554 192.394 122.464 191.482 122.121 190.654C121.778 189.825 121.197 189.117 120.451 188.619C119.705 188.12 118.829 187.854 117.932 187.854C119.135 187.854 120.288 188.332 121.139 189.183C121.989 190.033 122.467 191.186 122.467 192.389Z" fill="#2E5FB7"/>
<path d="M130.266 147.146C130.266 147.333 130.303 147.518 130.375 147.691C130.447 147.863 130.552 148.02 130.685 148.152L130.771 148.23C131.625 149.029 132.137 150.127 132.198 151.295C132.198 151.376 132.198 151.457 132.198 151.539C132.198 152.742 131.72 153.896 130.87 154.746C130.019 155.597 128.866 156.074 127.663 156.074C126.46 156.074 125.307 155.597 124.456 154.746C123.606 153.896 123.128 152.742 123.128 151.539C123.128 151.299 123.147 151.058 123.185 150.82C123.344 149.828 123.829 148.917 124.563 148.23C124.592 148.205 124.621 148.179 124.648 148.152C124.872 147.929 125.014 147.637 125.053 147.324C125.061 147.265 125.065 147.206 125.065 147.146C125.065 146.96 125.029 146.775 124.957 146.603C124.886 146.43 124.782 146.274 124.65 146.142C124.518 146.01 124.362 145.905 124.189 145.834C124.017 145.762 123.832 145.726 123.646 145.726H112.107V157.264C112.108 157.547 112.024 157.823 111.865 158.057C111.839 158.095 111.812 158.131 111.784 158.166C111.65 158.328 111.483 158.458 111.293 158.548C111.104 158.637 110.897 158.683 110.687 158.683C110.458 158.684 110.233 158.628 110.03 158.521C109.901 158.454 109.784 158.368 109.681 158.265C109.654 158.238 109.628 158.208 109.603 158.18C109.395 157.959 109.167 157.758 108.92 157.582C108.734 157.45 108.538 157.332 108.335 157.229C108.267 157.195 108.2 157.163 108.128 157.132C107.474 156.844 106.761 156.714 106.047 156.754C105.333 156.794 104.639 157.001 104.021 157.361C103.403 157.72 102.878 158.22 102.49 158.82C102.102 159.421 101.862 160.105 101.788 160.816C101.772 160.97 101.764 161.125 101.764 161.28C101.765 162.189 102.039 163.076 102.551 163.828C103.062 164.579 103.788 165.159 104.633 165.494C105.478 165.828 106.404 165.901 107.291 165.703C108.178 165.504 108.985 165.044 109.608 164.382C109.634 164.353 109.659 164.324 109.686 164.296C109.801 164.185 109.933 164.094 110.077 164.026C110.27 163.935 110.48 163.889 110.693 163.891C110.972 163.891 111.245 163.973 111.477 164.128C111.71 164.282 111.892 164.501 112.001 164.759C112.075 164.933 112.113 165.121 112.113 165.31V176.841H123.651C123.884 176.841 124.113 176.784 124.318 176.675C124.524 176.565 124.699 176.408 124.829 176.215C124.881 176.139 124.926 176.059 124.964 175.975C125.073 175.713 125.102 175.425 125.047 175.148C124.993 174.87 124.857 174.614 124.656 174.414C124.629 174.387 124.6 174.361 124.571 174.337C124.405 174.181 124.251 174.014 124.11 173.835C123.582 173.165 123.255 172.359 123.166 171.511C123.149 171.351 123.14 171.19 123.14 171.028C123.14 170.95 123.14 170.872 123.14 170.795C123.148 170.64 123.163 170.487 123.186 170.338C123.209 170.188 123.24 170.039 123.276 169.894C123.528 168.92 124.096 168.058 124.891 167.442C125.686 166.827 126.663 166.493 127.668 166.493C128.674 166.493 129.651 166.827 130.446 167.442C131.241 168.058 131.809 168.92 132.06 169.894C132.098 170.04 132.128 170.188 132.151 170.338C132.174 170.487 132.19 170.64 132.198 170.795C132.198 170.872 132.198 170.95 132.198 171.028C132.199 171.649 132.072 172.262 131.825 172.832C131.578 173.401 131.217 173.913 130.764 174.337C130.734 174.361 130.706 174.387 130.678 174.414C130.478 174.612 130.342 174.865 130.286 175.141C130.231 175.417 130.259 175.703 130.366 175.964C130.473 176.224 130.656 176.446 130.889 176.602C131.123 176.759 131.399 176.842 131.68 176.842H143.21V145.734H131.676C131.302 145.736 130.945 145.886 130.681 146.15C130.417 146.415 130.268 146.772 130.266 147.146Z" fill="#2E5FB7"/>
<path d="M61.4361 176.84C61.7177 176.841 61.9931 176.758 62.2272 176.601C62.4614 176.445 62.6438 176.223 62.7511 175.962C62.8584 175.702 62.8858 175.416 62.8299 175.14C62.774 174.864 62.6372 174.61 62.437 174.412C62.41 174.385 62.3817 174.36 62.352 174.336C61.4973 173.537 60.9853 172.438 60.9235 171.27C60.9235 171.189 60.9235 171.108 60.9235 171.027C60.9235 170.275 61.1105 169.534 61.4676 168.873C61.8248 168.211 62.3409 167.648 62.9696 167.236C63.5982 166.823 64.3196 166.573 65.0688 166.508C65.818 166.444 66.5716 166.566 67.2616 166.865C67.9516 167.164 68.5564 167.63 69.0216 168.221C69.4868 168.812 69.7978 169.509 69.9265 170.25C70.0553 170.991 69.9978 171.752 69.7591 172.466C69.5205 173.179 69.1083 173.821 68.5596 174.336C68.5299 174.36 68.5016 174.385 68.4746 174.412C68.2744 174.61 68.1376 174.864 68.0817 175.14C68.0257 175.416 68.0532 175.702 68.1605 175.962C68.2678 176.223 68.4502 176.445 68.6843 176.601C68.9185 176.758 69.1939 176.841 69.4755 176.84H81.0126V165.302C81.0127 165.021 81.0962 164.746 81.2527 164.512C81.4092 164.278 81.6316 164.096 81.8917 163.989C82.1518 163.882 82.4378 163.854 82.7136 163.91C82.9893 163.965 83.2424 164.102 83.4407 164.301C83.4682 164.329 83.4943 164.357 83.5189 164.387C84.2602 165.177 85.2595 165.675 86.3361 165.792C87.4127 165.909 88.4956 165.637 89.389 165.025C90.2825 164.413 90.9276 163.501 91.2077 162.455C91.4878 161.409 91.3844 160.297 90.9162 159.321C90.8609 159.206 90.8002 159.096 90.7368 158.988C90.718 158.957 90.7004 158.926 90.6815 158.896C90.6343 158.821 90.5858 158.748 90.5345 158.676C90.4832 158.605 90.4387 158.541 90.3888 158.481C89.985 157.967 89.4751 157.547 88.8938 157.25C88.3126 156.952 87.6739 156.783 87.0214 156.755C86.3689 156.727 85.7181 156.841 85.1136 157.088C84.509 157.335 83.965 157.71 83.5189 158.187C83.4946 158.216 83.4685 158.245 83.4407 158.272C83.2662 158.447 83.049 158.574 82.8105 158.639C82.5721 158.705 82.3207 158.707 82.0812 158.645C81.8417 158.583 81.6224 158.46 81.4452 158.288C81.2679 158.115 81.1388 157.9 81.0706 157.662C81.0338 157.535 81.0147 157.403 81.014 157.271V145.732H69.4688C69.1872 145.732 68.9118 145.815 68.6776 145.971C68.4434 146.128 68.2611 146.35 68.1538 146.61C68.0464 146.871 68.019 147.157 68.0749 147.433C68.1309 147.709 68.2677 147.962 68.4679 148.16C68.4949 148.187 68.5232 148.213 68.5529 148.238C69.2165 148.861 69.6778 149.668 69.8768 150.556C70.0759 151.443 70.0034 152.37 69.6689 153.216C69.3344 154.062 68.7533 154.788 68.001 155.299C67.2487 155.811 66.3601 156.084 65.4504 156.084C64.5407 156.084 63.6521 155.811 62.8998 155.299C62.1475 154.788 61.5664 154.062 61.2319 153.216C60.8974 152.37 60.8249 151.443 61.024 150.556C61.223 149.668 61.6843 148.861 62.3479 148.238C62.3776 148.213 62.4059 148.187 62.4329 148.16C62.6331 147.962 62.7699 147.709 62.8259 147.433C62.8818 147.157 62.8544 146.871 62.747 146.61C62.6397 146.35 62.4574 146.128 62.2232 145.971C61.989 145.815 61.7136 145.732 61.432 145.732H49.903V176.84H61.4361Z" fill="#4B22CC"/>
<path d="M112.439 195.501C112.481 195.45 112.526 195.402 112.574 195.357C112.835 195.117 113.176 194.984 113.531 194.984C113.718 194.985 113.903 195.022 114.075 195.094C114.248 195.166 114.405 195.271 114.537 195.404C114.564 195.431 114.589 195.459 114.615 195.489C115.129 196.038 115.772 196.45 116.485 196.689C117.198 196.928 117.96 196.986 118.701 196.857C119.442 196.729 120.139 196.418 120.73 195.953C121.321 195.487 121.787 194.883 122.086 194.192C122.385 193.502 122.508 192.749 122.443 191.999C122.379 191.25 122.129 190.528 121.716 189.9C121.303 189.271 120.74 188.755 120.078 188.398C119.416 188.041 118.676 187.854 117.924 187.854C117.723 187.855 117.522 187.868 117.322 187.895C116.286 188.032 115.329 188.525 114.615 189.288C114.589 189.318 114.564 189.346 114.537 189.373C114.339 189.572 114.085 189.709 113.81 189.764C113.534 189.82 113.248 189.792 112.988 189.685C112.728 189.578 112.505 189.396 112.349 189.162C112.192 188.928 112.109 188.653 112.109 188.372V176.84H100.57C100.305 176.841 100.045 176.916 99.8196 177.057C99.5946 177.199 99.4137 177.4 99.2976 177.639C99.1816 177.878 99.1349 178.145 99.1629 178.409C99.1909 178.673 99.2925 178.924 99.4561 179.133C99.4911 179.181 99.529 179.226 99.5694 179.268C99.5964 179.295 99.6247 179.322 99.6544 179.347C99.6841 179.371 99.6922 179.383 99.7097 179.402C100.36 180.033 100.806 180.844 100.991 181.731C101.176 182.618 101.091 183.539 100.747 184.377C100.402 185.216 99.8152 185.931 99.0606 186.432C98.3059 186.934 97.4184 187.197 96.5126 187.189C95.6067 187.181 94.724 186.902 93.9783 186.387C93.2326 185.873 92.6581 185.147 92.3289 184.303C91.9997 183.459 91.9309 182.536 92.1314 181.652C92.3318 180.769 92.7923 179.966 93.4535 179.347C93.4832 179.322 93.5115 179.295 93.5399 179.268C93.7215 179.087 93.8508 178.86 93.9139 178.612C93.977 178.363 93.9716 178.102 93.8983 177.856C93.825 177.611 93.6865 177.389 93.4975 177.216C93.3086 177.042 93.0761 176.923 92.8249 176.871C92.7304 176.852 92.6342 176.842 92.5376 176.842H81.0005V188.38C81.0011 188.662 80.9179 188.937 80.7616 189.171C80.6052 189.405 80.3826 189.588 80.1223 189.695C79.862 189.802 79.5756 189.83 79.2996 189.774C79.0236 189.718 78.7705 189.581 78.5725 189.381C78.5447 189.354 78.5185 189.326 78.4943 189.296C77.9711 188.737 77.315 188.319 76.5869 188.082C76.4391 188.033 76.2887 187.993 76.1364 187.961C75.9818 187.928 75.8255 187.903 75.6683 187.886C75.508 187.869 75.3467 187.861 75.1854 187.861C74.5834 187.85 73.9853 187.96 73.4261 188.183C72.8669 188.406 72.3577 188.739 71.9282 189.161C71.4988 189.583 71.1578 190.086 70.9249 190.642C70.6921 191.197 70.5722 191.793 70.5722 192.395C70.5722 192.997 70.6921 193.593 70.9249 194.149C71.1578 194.704 71.4988 195.207 71.9282 195.629C72.3577 196.051 72.8669 196.384 73.4261 196.607C73.9853 196.83 74.5834 196.94 75.1854 196.929C75.2663 196.929 75.3473 196.929 75.4282 196.929C76.5965 196.868 77.6954 196.356 78.4943 195.501C78.5185 195.471 78.5447 195.443 78.5725 195.416C78.7705 195.216 79.0236 195.079 79.2996 195.023C79.5756 194.967 79.862 194.995 80.1223 195.102C80.3826 195.209 80.6052 195.392 80.7616 195.626C80.9179 195.86 81.0011 196.135 81.0005 196.417V207.947H112.109V196.399C112.111 196.071 112.228 195.753 112.439 195.501Z" fill="#4B22CC"/>
<path d="M92.5444 145.725C92.8258 145.726 93.1009 145.642 93.3349 145.486C93.5688 145.329 93.7511 145.107 93.8584 144.847C93.9658 144.587 93.9935 144.301 93.938 144.025C93.8825 143.749 93.7462 143.496 93.5466 143.297H93.5385C93.5129 143.272 93.4872 143.249 93.4603 143.226C92.7966 142.604 92.3353 141.796 92.1363 140.909C91.9373 140.021 92.0097 139.094 92.3442 138.248C92.6787 137.402 93.2599 136.676 94.0121 136.165C94.7644 135.653 95.653 135.38 96.5627 135.38C97.4724 135.38 98.3611 135.653 99.1134 136.165C99.8656 136.676 100.447 137.402 100.781 138.248C101.116 139.094 101.188 140.021 100.989 140.909C100.79 141.796 100.329 142.604 99.6652 143.226C99.6355 143.252 99.6072 143.277 99.5802 143.304C99.3807 143.502 99.2445 143.755 99.1889 144.031C99.1334 144.307 99.1609 144.593 99.2681 144.853C99.3753 145.113 99.5573 145.336 99.7911 145.492C100.025 145.649 100.3 145.732 100.581 145.732H112.12V134.194C112.119 133.963 112.174 133.735 112.282 133.531C112.389 133.326 112.545 133.151 112.736 133.021C112.926 132.89 113.146 132.808 113.376 132.782C113.605 132.757 113.838 132.787 114.053 132.872C114.238 132.943 114.406 133.052 114.546 133.193C114.573 133.22 114.599 133.248 114.624 133.278C115.246 133.942 116.053 134.404 116.941 134.603C117.829 134.803 118.756 134.73 119.602 134.396C120.448 134.061 121.174 133.48 121.685 132.727C122.196 131.974 122.469 131.085 122.468 130.175C122.468 129.944 122.45 129.713 122.416 129.485C122.382 129.263 122.331 129.044 122.265 128.829C122.035 128.093 121.622 127.427 121.064 126.895C120.506 126.363 119.822 125.983 119.075 125.789C118.329 125.595 117.546 125.594 116.799 125.787C116.053 125.98 115.368 126.361 114.809 126.892L114.785 126.915C114.732 126.966 114.681 127.019 114.631 127.071C114.606 127.101 114.58 127.129 114.553 127.158C114.397 127.315 114.206 127.433 113.996 127.503C113.786 127.573 113.563 127.593 113.344 127.562C113.125 127.53 112.916 127.448 112.734 127.321C112.553 127.195 112.403 127.027 112.298 126.833C112.185 126.626 112.126 126.394 112.126 126.158V114.631H81.018V126.164C81.0183 126.445 80.9349 126.72 80.7785 126.954C80.6221 127.188 80.3997 127.37 80.1396 127.478C79.8795 127.585 79.5933 127.613 79.3174 127.557C79.0415 127.502 78.7884 127.366 78.59 127.166C78.5625 127.138 78.5364 127.11 78.5118 127.08C77.7128 126.225 76.6139 125.714 75.4458 125.652C75.3648 125.652 75.2839 125.652 75.2029 125.652C74.4503 125.652 73.7093 125.838 73.0468 126.195C72.3842 126.552 71.8208 127.068 71.4075 127.697C70.9941 128.326 70.7438 129.048 70.679 129.798C70.6141 130.548 70.7369 131.302 71.0362 131.993C71.3355 132.683 71.8019 133.288 72.3934 133.754C72.9848 134.219 73.6828 134.53 74.4244 134.659C75.166 134.787 75.9279 134.729 76.6414 134.49C77.355 134.25 77.9977 133.837 78.5118 133.287C78.5361 133.257 78.5622 133.229 78.59 133.202C78.788 133.002 79.0411 132.865 79.3171 132.809C79.5931 132.753 79.8795 132.781 80.1398 132.888C80.4002 132.995 80.6227 133.178 80.7791 133.412C80.9355 133.646 81.0186 133.922 81.018 134.203V145.742H92.5552L92.5444 145.725Z" fill="#4B22CC"/>
<path d="M130.266 147.146C130.266 147.333 130.303 147.518 130.375 147.691C130.447 147.863 130.552 148.02 130.685 148.152L130.771 148.23C131.625 149.029 132.137 150.127 132.198 151.295C132.198 151.376 132.198 151.457 132.198 151.539C132.198 152.742 131.72 153.896 130.87 154.746C130.019 155.597 128.866 156.074 127.663 156.074C126.46 156.074 125.307 155.597 124.456 154.746C123.606 153.896 123.128 152.742 123.128 151.539C123.128 151.299 123.147 151.058 123.185 150.82C123.344 149.828 123.829 148.917 124.563 148.23C124.592 148.205 124.621 148.179 124.648 148.152C124.872 147.929 125.014 147.637 125.053 147.324C125.061 147.265 125.065 147.206 125.065 147.146C125.065 146.96 125.029 146.775 124.957 146.603C124.886 146.43 124.782 146.274 124.65 146.142C124.518 146.01 124.362 145.905 124.189 145.834C124.017 145.762 123.832 145.726 123.646 145.726H112.107V157.264C112.108 157.547 112.024 157.823 111.865 158.057C111.839 158.095 111.812 158.131 111.784 158.166C111.65 158.328 111.483 158.458 111.293 158.548C111.104 158.637 110.897 158.683 110.687 158.683C110.458 158.684 110.233 158.628 110.03 158.521C109.901 158.454 109.784 158.368 109.681 158.265C109.654 158.238 109.628 158.208 109.603 158.18C109.395 157.959 109.167 157.758 108.92 157.582C108.734 157.45 108.538 157.332 108.335 157.229C108.267 157.195 108.2 157.163 108.128 157.132C107.474 156.844 106.761 156.714 106.047 156.754C105.333 156.794 104.639 157.001 104.021 157.361C103.403 157.72 102.878 158.22 102.49 158.82C102.102 159.421 101.862 160.105 101.788 160.816C101.772 160.97 101.764 161.125 101.764 161.28C101.765 162.189 102.039 163.076 102.551 163.828C103.062 164.579 103.788 165.159 104.633 165.494C105.478 165.828 106.404 165.901 107.291 165.703C108.178 165.504 108.985 165.044 109.608 164.382C109.634 164.353 109.659 164.324 109.686 164.296C109.801 164.185 109.933 164.094 110.077 164.026C110.27 163.935 110.48 163.889 110.693 163.891C110.972 163.891 111.245 163.973 111.477 164.128C111.71 164.282 111.892 164.501 112.001 164.759C112.075 164.933 112.113 165.121 112.113 165.31V176.841H123.651C123.884 176.841 124.113 176.784 124.318 176.675C124.524 176.565 124.699 176.408 124.829 176.215C124.881 176.139 124.926 176.059 124.964 175.975C125.073 175.713 125.102 175.425 125.047 175.148C124.993 174.87 124.857 174.614 124.656 174.414C124.629 174.387 124.6 174.361 124.571 174.337C124.405 174.181 124.251 174.014 124.11 173.835C123.582 173.165 123.255 172.359 123.166 171.511C123.149 171.351 123.14 171.19 123.14 171.028C123.14 170.95 123.14 170.872 123.14 170.795C123.148 170.64 123.163 170.487 123.186 170.338C123.209 170.188 123.24 170.039 123.276 169.894C123.528 168.92 124.096 168.058 124.891 167.442C125.686 166.827 126.663 166.493 127.668 166.493C128.674 166.493 129.651 166.827 130.446 167.442C131.241 168.058 131.809 168.92 132.06 169.894C132.098 170.04 132.128 170.188 132.151 170.338C132.174 170.487 132.19 170.64 132.198 170.795C132.198 170.872 132.198 170.95 132.198 171.028C132.199 171.649 132.072 172.262 131.825 172.832C131.578 173.401 131.217 173.913 130.764 174.337C130.734 174.361 130.706 174.387 130.678 174.414C130.478 174.612 130.342 174.865 130.286 175.141C130.231 175.417 130.259 175.703 130.366 175.964C130.473 176.224 130.656 176.446 130.889 176.602C131.123 176.759 131.399 176.842 131.68 176.842H143.21V145.734H131.676C131.302 145.736 130.945 145.886 130.681 146.15C130.417 146.415 130.268 146.772 130.266 147.146Z" fill="#4B22CC"/>
<path d="M79.5869 194.985C79.3997 194.984 79.2144 195.021 79.0416 195.093C78.8688 195.165 78.7121 195.271 78.5806 195.404C78.5528 195.431 78.5266 195.459 78.5024 195.489C77.7035 196.344 76.6046 196.856 75.4363 196.918C75.3554 196.918 75.2745 196.918 75.1935 196.918C74.5915 196.928 73.9934 196.818 73.4342 196.595C72.875 196.372 72.3658 196.04 71.9364 195.617C71.5069 195.195 71.1659 194.692 70.933 194.137C70.7002 193.581 70.5803 192.985 70.5803 192.383C70.5803 191.781 70.7002 191.185 70.933 190.63C71.1659 190.074 71.5069 189.571 71.9364 189.149C72.3658 188.727 72.875 188.395 73.4342 188.171C73.9934 187.948 74.5915 187.839 75.1935 187.849C75.3548 187.849 75.5161 187.857 75.6764 187.875C75.8336 187.891 75.9899 187.916 76.1445 187.949C76.2968 187.981 76.4472 188.021 76.595 188.07C77.3231 188.307 77.9792 188.725 78.5024 189.284C78.5266 189.314 78.5528 189.342 78.5806 189.369C78.7786 189.569 79.0317 189.706 79.3077 189.762C79.5837 189.818 79.8701 189.791 80.1304 189.683C80.3907 189.576 80.6133 189.394 80.7697 189.159C80.926 188.925 81.0092 188.65 81.0086 188.368V176.841H69.4688C69.1874 176.841 68.9122 176.757 68.6783 176.601C68.4443 176.445 68.2621 176.222 68.1547 175.962C68.0474 175.702 68.0197 175.416 68.0752 175.14C68.1307 174.864 68.2669 174.611 68.4666 174.413C68.4949 174.386 68.5232 174.36 68.5529 174.336C69.1016 173.821 69.5138 173.179 69.7524 172.466C69.991 171.753 70.0486 170.991 69.9198 170.25C69.7911 169.509 69.4801 168.812 69.0149 168.221C68.5497 167.63 67.9449 167.165 67.2549 166.866C66.5649 166.567 65.8113 166.444 65.0621 166.508C64.3129 166.573 63.5915 166.823 62.9628 167.236C62.3342 167.648 61.8181 168.211 61.4609 168.873C61.1038 169.535 60.9168 170.275 60.9168 171.027C60.9168 171.108 60.9168 171.189 60.9168 171.27C60.9786 172.438 61.4906 173.537 62.3453 174.336C62.375 174.36 62.4033 174.386 62.4303 174.413C62.6305 174.611 62.7673 174.864 62.8232 175.14C62.8791 175.416 62.8517 175.702 62.7444 175.962C62.6371 176.223 62.4547 176.445 62.2206 176.602C61.9864 176.758 61.711 176.841 61.4294 176.841H49.8963V203.279C49.9006 204.514 50.3932 205.696 51.2667 206.569C52.1401 207.442 53.3234 207.934 54.5581 207.937H81.0059V196.4C81.0041 196.024 80.8539 195.665 80.5881 195.4C80.3222 195.134 79.9623 194.985 79.5869 194.985Z" fill="#4B22CC"/>
<path d="M130.266 175.415C130.266 175.228 130.303 175.042 130.375 174.869C130.447 174.696 130.552 174.539 130.685 174.407C130.713 174.38 130.741 174.355 130.771 174.33C131.224 173.907 131.585 173.394 131.832 172.825C132.078 172.256 132.205 171.642 132.205 171.021C132.205 170.943 132.205 170.865 132.205 170.788C132.197 170.633 132.18 170.481 132.157 170.331C132.135 170.181 132.105 170.033 132.067 169.887C131.816 168.913 131.248 168.051 130.453 167.436C129.658 166.82 128.681 166.486 127.675 166.486C126.67 166.486 125.693 166.82 124.898 167.436C124.103 168.051 123.535 168.913 123.283 169.887C123.247 170.033 123.216 170.18 123.193 170.331C123.17 170.482 123.155 170.633 123.147 170.788C123.147 170.865 123.147 170.943 123.147 171.021C123.147 171.183 123.156 171.344 123.172 171.504C123.262 172.353 123.589 173.158 124.117 173.828C124.258 174.007 124.412 174.175 124.578 174.33C124.608 174.355 124.636 174.38 124.663 174.407C124.863 174.607 124.999 174.863 125.054 175.141C125.109 175.419 125.08 175.707 124.971 175.968C124.933 176.052 124.888 176.132 124.836 176.208C124.706 176.401 124.53 176.559 124.325 176.668C124.12 176.777 123.891 176.834 123.658 176.834H112.12V188.372C112.119 188.654 112.202 188.929 112.359 189.163C112.515 189.398 112.738 189.58 112.998 189.687C113.258 189.795 113.545 189.822 113.821 189.766C114.097 189.71 114.35 189.573 114.548 189.373C114.575 189.346 114.6 189.318 114.626 189.288C115.34 188.528 116.294 188.039 117.328 187.902C117.527 187.875 117.728 187.862 117.929 187.861C118.681 187.861 119.421 188.048 120.082 188.406C120.743 188.763 121.306 189.279 121.718 189.907C122.13 190.536 122.38 191.257 122.445 192.006C122.509 192.755 122.386 193.508 122.087 194.198C121.788 194.887 121.323 195.492 120.732 195.957C120.142 196.422 119.445 196.733 118.704 196.861C117.964 196.99 117.203 196.933 116.49 196.694C115.777 196.456 115.135 196.044 114.62 195.496C114.595 195.466 114.569 195.438 114.542 195.411C114.285 195.151 113.936 195 113.57 194.991C113.204 194.983 112.849 195.116 112.58 195.364C112.532 195.409 112.487 195.457 112.445 195.508C112.235 195.762 112.121 196.082 112.121 196.412V207.946H138.559C139.794 207.944 140.977 207.452 141.85 206.58C142.723 205.707 143.214 204.524 143.217 203.29V176.837H131.687C131.5 176.837 131.315 176.8 131.143 176.729C130.97 176.657 130.813 176.552 130.681 176.42C130.55 176.288 130.445 176.132 130.374 175.959C130.302 175.786 130.266 175.601 130.266 175.415Z" fill="#4B22CC"/>
<path d="M92.8317 176.863C93.0829 176.915 93.3153 177.034 93.5043 177.208C93.6933 177.381 93.8318 177.602 93.9051 177.848C93.9784 178.094 93.9838 178.355 93.9206 178.604C93.8575 178.852 93.7283 179.079 93.5466 179.26C93.5192 179.288 93.4903 179.314 93.4603 179.339C92.7977 179.958 92.336 180.762 92.1347 181.646C91.9335 182.531 92.0019 183.455 92.3311 184.3C92.6604 185.145 93.2354 185.873 93.9819 186.388C94.7284 186.903 95.6122 187.183 96.5192 187.191C97.4262 187.199 98.3148 186.935 99.0703 186.433C99.8258 185.931 100.414 185.214 100.758 184.375C101.102 183.536 101.187 182.612 101.001 181.725C100.815 180.837 100.368 180.025 99.7165 179.394C99.6989 179.375 99.6801 179.356 99.6612 179.339C99.6312 179.314 99.6029 179.288 99.5762 179.26C99.5357 179.218 99.4979 179.173 99.4629 179.125C99.2987 178.916 99.1966 178.665 99.1683 178.401C99.14 178.137 99.1866 177.87 99.3028 177.63C99.419 177.391 99.6001 177.19 99.8254 177.048C100.051 176.907 100.311 176.832 100.577 176.832H112.116V165.294C112.116 165.104 112.078 164.916 112.004 164.742C111.895 164.485 111.713 164.266 111.48 164.111C111.247 163.957 110.974 163.875 110.695 163.875C110.483 163.872 110.272 163.919 110.08 164.01C109.936 164.077 109.803 164.168 109.689 164.279C109.662 164.308 109.636 164.336 109.611 164.366C109.429 164.558 109.232 164.735 109.02 164.893C108.346 165.398 107.545 165.706 106.707 165.781C105.868 165.856 105.025 165.697 104.272 165.32C103.519 164.944 102.886 164.365 102.443 163.648C102.001 162.932 101.767 162.107 101.767 161.265C101.767 161.11 101.775 160.955 101.791 160.801C101.865 160.09 102.105 159.406 102.493 158.805C102.881 158.205 103.406 157.705 104.024 157.346C104.642 156.986 105.336 156.778 106.05 156.739C106.764 156.699 107.477 156.828 108.131 157.117C108.2 157.148 108.266 157.18 108.337 157.214C108.541 157.317 108.736 157.435 108.923 157.567C109.169 157.743 109.398 157.944 109.605 158.165C109.631 158.193 109.656 158.223 109.683 158.25C109.786 158.353 109.904 158.439 110.033 158.506C110.235 158.613 110.461 158.669 110.69 158.668C110.899 158.668 111.106 158.622 111.296 158.533C111.486 158.443 111.653 158.313 111.786 158.151C111.815 158.116 111.842 158.08 111.867 158.042C112.026 157.808 112.111 157.532 112.11 157.249V145.711H100.572C100.29 145.711 100.015 145.628 99.7805 145.472C99.5463 145.315 99.364 145.093 99.2567 144.832C99.1493 144.572 99.1219 144.286 99.1778 144.01C99.2338 143.734 99.3706 143.48 99.5708 143.282C99.5978 143.256 99.6261 143.23 99.6558 143.204C100.319 142.582 100.78 141.775 100.979 140.888C101.177 140 101.105 139.074 100.77 138.228C100.436 137.383 99.8549 136.657 99.1029 136.146C98.3509 135.635 97.4626 135.362 96.5533 135.362C95.644 135.362 94.7557 135.635 94.0037 136.146C93.2517 136.657 92.6708 137.383 92.3363 138.228C92.0018 139.074 91.9292 140 92.128 140.888C92.3267 141.775 92.7876 142.582 93.4508 143.204C93.4778 143.227 93.5034 143.25 93.5291 143.276H93.5372C93.7368 143.474 93.873 143.727 93.9285 144.003C93.9841 144.279 93.9564 144.565 93.849 144.825C93.7416 145.085 93.5594 145.308 93.3255 145.464C93.0915 145.621 92.8163 145.704 92.5349 145.704H80.9978V157.242C80.9981 157.375 81.0167 157.506 81.0531 157.633C81.1213 157.871 81.2504 158.087 81.4277 158.259C81.6049 158.432 81.8241 158.555 82.0636 158.617C82.3031 158.678 82.5546 158.676 82.793 158.611C83.0315 158.545 83.2487 158.418 83.4231 158.243C83.4506 158.216 83.4767 158.188 83.5014 158.158C83.9475 157.681 84.4915 157.306 85.0961 157.059C85.7006 156.812 86.3514 156.699 87.0039 156.727C87.6564 156.755 88.2951 156.923 88.8763 157.221C89.4575 157.519 89.9675 157.939 90.3713 158.452C90.4212 158.516 90.4711 158.587 90.517 158.648C90.5628 158.708 90.6168 158.792 90.664 158.868C90.6829 158.897 90.7004 158.928 90.7193 158.959C90.7827 159.067 90.8434 159.178 90.8987 159.293C91.3669 160.269 91.4702 161.381 91.1902 162.427C90.9101 163.473 90.265 164.384 89.3715 164.996C88.4781 165.608 87.3952 165.88 86.3186 165.763C85.242 165.647 84.2427 165.148 83.5014 164.359C83.4768 164.329 83.4506 164.3 83.4231 164.273C83.2251 164.072 82.9718 163.936 82.6957 163.88C82.4196 163.824 82.1331 163.851 81.8727 163.959C81.6123 164.066 81.3898 164.249 81.2335 164.483C81.0772 164.718 80.9942 164.993 80.9951 165.275V176.84H92.5322C92.6326 176.838 92.733 176.845 92.8317 176.863Z" fill="#4B22CC"/>
<path d="M112.287 126.831C112.393 127.026 112.542 127.192 112.724 127.319C112.906 127.445 113.114 127.527 113.333 127.558C113.552 127.59 113.775 127.57 113.985 127.5C114.195 127.431 114.386 127.313 114.542 127.156C114.569 127.128 114.595 127.1 114.62 127.07C114.67 127.016 114.722 126.965 114.774 126.914L114.798 126.891C115.357 126.359 116.042 125.979 116.788 125.786C117.535 125.593 118.318 125.593 119.064 125.787C119.811 125.981 120.495 126.362 121.053 126.894C121.611 127.426 122.025 128.092 122.254 128.828C122.32 129.042 122.371 129.261 122.405 129.483C122.44 129.712 122.457 129.943 122.458 130.174C122.458 131.084 122.186 131.973 121.674 132.726C121.163 133.478 120.437 134.06 119.591 134.394C118.745 134.729 117.818 134.801 116.93 134.602C116.043 134.403 115.235 133.941 114.614 133.276C114.588 133.247 114.562 133.218 114.535 133.191C114.337 132.992 114.084 132.856 113.808 132.8C113.533 132.745 113.247 132.772 112.986 132.879C112.726 132.987 112.504 133.169 112.348 133.402C112.191 133.636 112.107 133.911 112.107 134.192V145.731H123.646C123.832 145.731 124.017 145.768 124.189 145.839C124.362 145.91 124.518 146.015 124.65 146.147C124.782 146.279 124.886 146.435 124.957 146.608C125.029 146.78 125.065 146.965 125.065 147.151C125.065 147.211 125.061 147.27 125.053 147.329C125.014 147.643 124.872 147.934 124.648 148.157C124.621 148.184 124.591 148.21 124.563 148.236C123.829 148.922 123.343 149.833 123.185 150.826C123.147 151.063 123.128 151.304 123.128 151.545C123.128 152.747 123.606 153.901 124.456 154.751C125.307 155.602 126.46 156.08 127.663 156.08C128.866 156.08 130.019 155.602 130.87 154.751C131.72 153.901 132.198 152.747 132.198 151.545C132.198 151.462 132.198 151.381 132.198 151.3C132.137 150.133 131.625 149.034 130.771 148.236L130.684 148.157C130.485 147.959 130.349 147.706 130.293 147.43C130.238 147.154 130.265 146.868 130.373 146.608C130.48 146.348 130.662 146.125 130.896 145.969C131.13 145.813 131.405 145.729 131.687 145.729H143.221V119.299C143.218 118.064 142.726 116.881 141.853 116.008C140.981 115.134 139.798 114.641 138.563 114.636H112.113V126.164C112.115 126.397 112.175 126.627 112.287 126.831Z" fill="#4B22CC"/>
<path d="M101.647 163.171C103.564 162.053 105.059 160.335 105.902 158.282C106.745 156.229 106.888 153.955 106.309 151.813C105.73 149.671 104.461 147.779 102.699 146.43C100.937 145.08 98.7799 144.349 96.5607 144.349C94.3415 144.349 92.1841 145.08 90.4221 146.43C88.66 147.779 87.3915 149.671 86.8125 151.813C86.2336 153.955 86.3766 156.229 87.2193 158.282C88.062 160.335 89.5576 162.053 91.4747 163.171L88.2981 175.492C87.9123 176.986 88.8592 178.208 90.4024 178.208H102.72C104.264 178.208 105.211 176.986 104.825 175.492L101.647 163.171Z" fill="white"/>
<path d="M196.167 183.466C208.42 183.466 218.353 173.533 218.353 161.279C218.353 149.026 208.42 139.093 196.167 139.093C183.913 139.093 173.98 149.026 173.98 161.279C173.98 173.533 183.913 183.466 196.167 183.466Z" fill="#E3ED5D"/>
<path d="M138.875 170.482C139.222 170.48 139.554 170.342 139.8 170.097C140.045 169.851 140.183 169.519 140.185 169.172V168.081C140.186 167.734 140.324 167.401 140.57 167.156C140.815 166.91 141.148 166.772 141.495 166.771H143.591C143.938 166.772 144.27 166.91 144.516 167.156C144.761 167.401 144.899 167.734 144.901 168.081V169.172C144.902 169.519 145.04 169.851 145.286 170.097C145.531 170.342 145.863 170.48 146.21 170.482H146.634C146.981 170.48 147.313 170.342 147.558 170.097C147.804 169.851 147.942 169.519 147.944 169.172V168.198C147.945 167.851 148.083 167.518 148.328 167.273C148.574 167.028 148.906 166.889 149.253 166.888H149.515C149.862 166.889 150.195 167.027 150.44 167.273C150.686 167.518 150.824 167.851 150.825 168.198V169.172C150.826 169.519 150.965 169.852 151.211 170.097C151.456 170.342 151.789 170.481 152.136 170.482H152.56C152.907 170.48 153.239 170.342 153.484 170.097C153.729 169.851 153.868 169.519 153.869 169.172V167.382C153.87 167.035 154.009 166.702 154.254 166.457C154.5 166.212 154.832 166.073 155.179 166.072H156.702C157.049 166.073 157.382 166.212 157.627 166.457C157.872 166.702 158.011 167.035 158.012 167.382V169.172C158.013 169.519 158.152 169.852 158.397 170.097C158.643 170.342 158.976 170.481 159.323 170.482H159.746C160.093 170.48 160.426 170.342 160.671 170.097C160.916 169.851 161.055 169.519 161.056 169.172V168.248C161.057 167.901 161.196 167.568 161.441 167.323C161.686 167.078 162.019 166.939 162.366 166.938H164.724C165.071 166.939 165.404 167.078 165.649 167.323C165.894 167.568 166.033 167.901 166.034 168.248V169.172C166.035 169.519 166.174 169.851 166.419 170.097C166.664 170.342 166.997 170.48 167.343 170.482H178.553C178.9 170.48 179.232 170.342 179.477 170.097C179.723 169.851 179.861 169.519 179.863 169.172V153.39C179.862 153.043 179.723 152.71 179.478 152.465C179.232 152.219 178.9 152.081 178.553 152.08H106.448C105.727 152.08 104.694 152.474 104.154 152.953L95.8047 160.41C95.6782 160.517 95.5765 160.651 95.5068 160.801C95.4371 160.952 95.401 161.116 95.401 161.282C95.401 161.448 95.4371 161.612 95.5068 161.763C95.5765 161.914 95.6782 162.047 95.8047 162.155L104.154 169.612C104.808 170.136 105.61 170.442 106.448 170.484H109.483C109.829 170.483 110.162 170.345 110.407 170.099C110.652 169.854 110.791 169.522 110.792 169.175V168.083C110.793 167.736 110.932 167.404 111.177 167.158C111.423 166.913 111.755 166.775 112.102 166.774H114.198C114.545 166.775 114.878 166.913 115.123 167.158C115.369 167.404 115.507 167.736 115.508 168.083V169.175C115.509 169.522 115.648 169.854 115.893 170.099C116.139 170.345 116.471 170.483 116.818 170.484H117.241C117.588 170.483 117.921 170.345 118.166 170.099C118.411 169.854 118.55 169.522 118.551 169.175V168.201C118.552 167.854 118.691 167.521 118.936 167.276C119.181 167.03 119.514 166.892 119.861 166.891H120.131C120.478 166.892 120.81 167.03 121.056 167.276C121.301 167.521 121.439 167.854 121.441 168.201V169.175C121.442 169.522 121.58 169.854 121.826 170.099C122.071 170.345 122.403 170.483 122.75 170.484H123.174C123.521 170.483 123.853 170.345 124.098 170.099C124.344 169.854 124.482 169.522 124.484 169.175V167.385C124.485 167.038 124.623 166.705 124.868 166.46C125.114 166.214 125.446 166.076 125.793 166.075H127.318C127.665 166.076 127.997 166.214 128.243 166.46C128.488 166.705 128.626 167.038 128.627 167.385V169.175C128.629 169.522 128.767 169.854 129.013 170.099C129.258 170.345 129.59 170.483 129.937 170.484H130.361C130.708 170.483 131.04 170.345 131.285 170.099C131.531 169.854 131.669 169.522 131.671 169.175V168.251C131.672 167.904 131.81 167.571 132.055 167.326C132.301 167.08 132.633 166.942 132.98 166.941H135.338C135.685 166.942 136.018 167.08 136.263 167.326C136.509 167.571 136.647 167.904 136.648 168.251V169.175C136.649 169.522 136.788 169.854 137.034 170.1C137.279 170.345 137.612 170.483 137.959 170.484L138.875 170.482Z" fill="#E3ED5D"/>
<g style="mix-blend-mode:color-burn">
<path d="M196.887 141.724C193.989 141.615 191.104 142.155 188.442 143.303C187.855 143.555 187.356 143.974 187.005 144.507C186.653 145.04 186.466 145.664 186.465 146.303V176.256C186.466 176.896 186.654 177.521 187.006 178.054C187.358 178.588 187.859 179.007 188.447 179.259C190.885 180.31 193.512 180.851 196.167 180.848C207.144 180.848 216.039 171.762 215.726 160.716C215.437 150.45 207.149 142.095 196.887 141.724Z" fill="#E3ED5D"/>
</g>
<path d="M208.198 163.751C209.562 163.751 210.669 162.644 210.669 161.28C210.669 159.915 209.562 158.808 208.198 158.808C206.833 158.808 205.726 159.915 205.726 161.28C205.726 162.644 206.833 163.751 208.198 163.751Z" fill="white"/>
<g style="mix-blend-mode:color-burn">
<path d="M158.69 152.077H106.448C105.727 152.077 104.694 152.471 104.154 152.95L95.8047 160.407C95.6782 160.514 95.5765 160.648 95.5068 160.799C95.4371 160.949 95.401 161.114 95.401 161.28C95.401 161.446 95.4371 161.61 95.5068 161.76C95.5765 161.911 95.6782 162.045 95.8047 162.152L104.154 169.609C104.808 170.134 105.61 170.439 106.448 170.482H109.483C109.829 170.48 110.162 170.342 110.407 170.097C110.652 169.851 110.791 169.519 110.792 169.172V168.081C110.793 167.734 110.932 167.401 111.177 167.156C111.423 166.91 111.755 166.772 112.102 166.771H114.198C114.545 166.772 114.878 166.91 115.123 167.156C115.369 167.401 115.507 167.734 115.508 168.081V169.172C115.509 169.519 115.648 169.851 115.893 170.097C116.139 170.342 116.471 170.48 116.818 170.482H117.241C117.588 170.48 117.921 170.342 118.166 170.097C118.411 169.851 118.55 169.519 118.551 169.172V168.198C118.552 167.851 118.691 167.518 118.936 167.273C119.181 167.028 119.514 166.889 119.861 166.888H120.131C120.478 166.889 120.81 167.028 121.056 167.273C121.301 167.518 121.439 167.851 121.441 168.198V169.172C121.442 169.519 121.58 169.851 121.826 170.097C122.071 170.342 122.403 170.48 122.75 170.482H123.174C123.521 170.48 123.853 170.342 124.098 170.097C124.344 169.851 124.482 169.519 124.484 169.172V167.382C124.485 167.035 124.623 166.702 124.868 166.457C125.114 166.212 125.446 166.073 125.793 166.072H127.318C127.665 166.073 127.997 166.212 128.243 166.457C128.488 166.702 128.626 167.035 128.627 167.382V169.172C128.629 169.519 128.767 169.851 129.013 170.097C129.258 170.342 129.59 170.48 129.937 170.482H130.361C130.708 170.48 131.04 170.342 131.285 170.097C131.531 169.851 131.669 169.519 131.671 169.172V168.248C131.672 167.901 131.81 167.568 132.055 167.323C132.301 167.078 132.633 166.939 132.98 166.938H135.338C135.685 166.939 136.018 167.078 136.263 167.323C136.509 167.568 136.647 167.901 136.648 168.248V169.172C136.649 169.519 136.788 169.852 137.034 170.097C137.279 170.342 137.612 170.481 137.959 170.482H138.882C139.229 170.48 139.561 170.342 139.806 170.097C140.052 169.851 140.19 169.519 140.192 169.172V168.081C140.193 167.734 140.331 167.401 140.576 167.156C140.822 166.91 141.154 166.772 141.501 166.771H143.597C143.945 166.772 144.277 166.91 144.522 167.156C144.768 167.401 144.906 167.734 144.907 168.081V169.172C144.909 169.519 145.047 169.851 145.292 170.097C145.538 170.342 145.87 170.48 146.217 170.482H146.641C146.988 170.48 147.32 170.342 147.565 170.097C147.811 169.851 147.949 169.519 147.95 169.172V168.198C147.951 167.851 148.09 167.518 148.335 167.273C148.581 167.028 148.913 166.889 149.26 166.888H149.522C149.869 166.889 150.202 167.027 150.447 167.273C150.693 167.518 150.831 167.851 150.832 168.198V169.172C150.833 169.519 150.972 169.852 151.217 170.097C151.463 170.342 151.796 170.481 152.143 170.482H152.566C152.913 170.48 153.246 170.342 153.491 170.097C153.736 169.851 153.875 169.519 153.876 169.172V167.382C153.877 167.035 154.015 166.702 154.261 166.457C154.506 166.212 154.839 166.073 155.186 166.072H156.709C157.056 166.073 157.388 166.212 157.634 166.457C157.879 166.702 158.017 167.035 158.019 167.382V169.172C158.019 169.406 158.082 169.635 158.2 169.836C158.319 170.038 158.489 170.204 158.693 170.317L158.69 152.077Z" fill="#E3ED5D"/>
</g>
<path d="M186.828 57.7125H186.766C185.32 52.1604 180.324 48.0422 174.323 48.0422C171.47 48.0457 168.7 48.9976 166.447 50.7483C164.195 52.499 162.589 54.9489 161.882 57.7125H161.814C160.326 57.6962 158.848 57.9753 157.468 58.5338C156.088 59.0922 154.833 59.9188 153.774 60.9657C152.716 62.0127 151.875 63.2592 151.302 64.6331C150.728 66.0069 150.433 67.4809 150.433 68.9697C150.433 70.4585 150.728 71.9325 151.302 73.3064C151.875 74.6803 152.716 75.9267 153.774 76.9737C154.833 78.0206 156.088 78.8472 157.468 79.4057C158.848 79.9641 160.326 80.2432 161.814 80.2269H186.828C189.792 80.1945 192.624 78.9942 194.709 76.8866C196.794 74.7789 197.963 71.9341 197.963 68.9697C197.963 66.0053 196.794 63.1605 194.709 61.0529C192.624 58.9453 189.792 57.7449 186.828 57.7125Z" fill="#4B22CC"/>
<path d="M186.828 57.7122H186.766C185.32 52.1602 180.324 48.042 174.323 48.042C171.984 48.0424 169.69 48.6823 167.689 49.8925C165.688 51.1026 164.055 52.837 162.969 54.9079V80.2267H186.828C189.792 80.1942 192.624 78.9939 194.709 76.8863C196.794 74.7787 197.963 71.9339 197.963 68.9695C197.963 66.005 196.794 63.1602 194.709 61.0526C192.624 58.945 189.792 57.7447 186.828 57.7122Z" fill="#4B22CC"/>
<path d="M197.246 64.2249H197.196C196.695 62.2594 195.554 60.5167 193.952 59.2721C192.351 58.0275 190.38 57.3518 188.352 57.3518C186.323 57.3518 184.353 58.0275 182.751 59.2721C181.15 60.5167 180.009 62.2594 179.508 64.2249H179.462C178.402 64.2112 177.351 64.4079 176.368 64.8039C175.385 65.1998 174.491 65.7869 173.737 66.5313C172.983 67.2756 172.384 68.1623 171.975 69.1398C171.567 70.1174 171.356 71.1664 171.356 72.2259C171.356 73.2854 171.567 74.3344 171.975 75.312C172.384 76.2895 172.983 77.1762 173.737 77.9205C174.491 78.6649 175.385 79.252 176.368 79.6479C177.351 80.0439 178.402 80.2406 179.462 80.2269H197.24C199.344 80.1996 201.353 79.3446 202.831 77.8471C204.309 76.3496 205.138 74.3301 205.138 72.2259C205.138 70.1217 204.309 68.1022 202.831 66.6047C201.353 65.1072 199.344 64.2522 197.24 64.2249H197.246Z" fill="#4B22CC"/>
<path d="M194.682 71.509C194.679 71.4655 194.663 71.4238 194.636 71.3898C194.609 71.3559 194.571 71.3315 194.529 71.3202L193.977 71.1961C193.871 70.7673 193.693 70.3593 193.453 69.9888L193.739 69.5005C193.76 69.4624 193.768 69.4184 193.762 69.3751C193.757 69.3318 193.737 69.2916 193.706 69.2604L192.865 68.4511C192.832 68.4219 192.792 68.4038 192.749 68.3992C192.706 68.3946 192.662 68.4038 192.624 68.4254L192.144 68.7276C191.766 68.5004 191.353 68.3372 190.922 68.2447L190.779 67.7051C190.766 67.6633 190.741 67.6266 190.706 67.6002C190.671 67.5738 190.629 67.559 190.585 67.5581L189.418 67.577C189.374 67.5794 189.332 67.5956 189.298 67.6232C189.264 67.6508 189.239 67.6884 189.228 67.7308L189.103 68.2825C188.675 68.3895 188.268 68.5663 187.898 68.8058L187.408 68.5199C187.37 68.4992 187.325 68.4913 187.282 68.4971C187.238 68.5029 187.198 68.5222 187.165 68.5522L186.356 69.3926C186.327 69.4249 186.308 69.4657 186.304 69.5091C186.299 69.5526 186.309 69.5963 186.331 69.6341L186.631 70.1129C186.404 70.4916 186.24 70.9055 186.148 71.3377L185.601 71.4807C185.559 71.4932 185.522 71.5186 185.496 71.5533C185.47 71.5879 185.455 71.63 185.454 71.6736L185.474 72.8404C185.476 72.8842 185.492 72.9261 185.52 72.9601C185.547 72.9941 185.585 73.0183 185.628 73.0292L186.178 73.1547C186.284 73.5854 186.461 73.9956 186.701 74.3687L186.417 74.857C186.396 74.8951 186.387 74.9391 186.393 74.9824C186.399 75.0257 186.419 75.0659 186.449 75.0971L187.288 75.9064C187.321 75.9352 187.363 75.953 187.406 75.9576C187.45 75.9622 187.494 75.9533 187.532 75.9321L188.009 75.6299C188.387 75.8583 188.801 76.022 189.233 76.1142L189.376 76.6605C189.389 76.7024 189.415 76.7394 189.45 76.766C189.484 76.7926 189.527 76.8076 189.571 76.8088L190.737 76.7886C190.781 76.7862 190.823 76.77 190.857 76.7424C190.891 76.7148 190.916 76.6772 190.928 76.6348L191.052 76.0845C191.483 75.9785 191.893 75.8012 192.266 75.5598L192.754 75.8457C192.793 75.8658 192.836 75.8733 192.879 75.8672C192.922 75.8612 192.963 75.8419 192.994 75.812L193.803 74.9716C193.833 74.9392 193.852 74.898 193.856 74.8543C193.86 74.8105 193.85 74.7665 193.828 74.7288L193.527 74.2527C193.755 73.874 193.918 73.4601 194.01 73.0279L194.557 72.8849C194.599 72.8723 194.636 72.8467 194.663 72.8118C194.689 72.7769 194.704 72.7344 194.704 72.6907L194.682 71.509Z" fill="white"/>
<path d="M190.032 69.4233C189.488 69.4324 188.96 69.6026 188.513 69.9122C188.066 70.2219 187.721 70.6571 187.522 71.1628C187.323 71.6685 187.278 72.2219 187.393 72.7532C187.508 73.2844 187.778 73.7695 188.169 74.1471C188.56 74.5247 189.055 74.7778 189.59 74.8745C190.125 74.9712 190.676 74.907 191.175 74.6901C191.673 74.4732 192.096 74.1133 192.39 73.656C192.684 73.1987 192.835 72.6646 192.825 72.1211C192.813 71.3929 192.511 70.6996 191.987 70.1937C191.463 69.6878 190.76 69.4106 190.032 69.4233Z" fill="#4B22CC"/>
<path d="M190.107 73.9532C189.755 73.9588 189.409 73.8598 189.113 73.6687C188.817 73.4776 188.584 73.203 188.444 72.8797C188.304 72.5564 188.263 72.1988 188.326 71.8522C188.389 71.5055 188.554 71.1854 188.799 70.9322C189.044 70.6791 189.359 70.5042 189.703 70.4298C190.048 70.3554 190.406 70.3848 190.734 70.5142C191.062 70.6437 191.344 70.8674 191.544 71.157C191.745 71.4467 191.855 71.7893 191.861 72.1416C191.865 72.3758 191.823 72.6084 191.737 72.8261C191.651 73.0439 191.523 73.2426 191.36 73.4109C191.197 73.5791 191.002 73.7136 190.788 73.8067C190.573 73.8997 190.342 73.9495 190.107 73.9532Z" fill="white"/>
<g style="mix-blend-mode:color-burn">
<path d="M194.529 71.32L193.977 71.1959C193.871 70.7671 193.693 70.3591 193.453 69.9886L193.722 69.5354H186.304C186.305 69.5662 186.314 69.5963 186.329 69.6231L186.63 70.1019C186.402 70.4806 186.239 70.8945 186.147 71.3267L185.599 71.4697C185.558 71.4822 185.521 71.5076 185.495 71.5423C185.468 71.5769 185.453 71.6191 185.452 71.6626L185.473 72.8294C185.475 72.8732 185.491 72.9152 185.518 72.9491C185.546 72.9831 185.584 73.0073 185.626 73.0183L186.177 73.1437C186.283 73.5745 186.46 73.9847 186.7 74.3577L186.416 74.846C186.394 74.8842 186.386 74.9282 186.392 74.9714C186.398 75.0147 186.417 75.0549 186.448 75.0861L187.287 75.8955C187.32 75.9242 187.361 75.9421 187.405 75.9467C187.449 75.9512 187.493 75.9423 187.531 75.9211L188.007 75.6189C188.386 75.8473 188.8 76.011 189.232 76.1032L189.375 76.6495C189.388 76.6915 189.413 76.7284 189.448 76.755C189.483 76.7816 189.525 76.7966 189.569 76.7979L190.736 76.7776C190.78 76.7752 190.822 76.7591 190.856 76.7315C190.89 76.7039 190.915 76.6662 190.926 76.6239L191.05 76.0735C191.481 75.9676 191.892 75.7902 192.264 75.5488L192.753 75.8348C192.791 75.8548 192.835 75.8623 192.878 75.8562C192.921 75.8502 192.961 75.8309 192.993 75.801L193.802 74.9607C193.832 74.9282 193.85 74.8871 193.855 74.8433C193.859 74.7995 193.849 74.7555 193.826 74.7179L193.526 74.2417C193.753 73.863 193.917 73.4491 194.008 73.0169L194.556 72.8739C194.598 72.8613 194.635 72.8357 194.661 72.8008C194.688 72.7659 194.702 72.7235 194.703 72.6797L194.683 71.5115C194.681 71.4673 194.665 71.4249 194.638 71.3904C194.61 71.3559 194.572 71.3312 194.529 71.32Z" fill="white"/>
</g>
<path d="M185.73 73.5509L185.114 73.1003C185.083 73.0763 185.057 73.0476 185.036 73.0154C185.115 72.4932 185.115 71.962 185.036 71.4399C185.056 71.4058 185.083 71.3757 185.114 71.3508L185.729 70.9003C185.775 70.8637 185.808 70.8137 185.823 70.7573C185.839 70.7009 185.837 70.641 185.817 70.586L185.22 69.1467C185.196 69.0937 185.155 69.0497 185.105 69.0209C185.054 68.9921 184.995 68.98 184.937 68.9862L184.182 69.1036C184.143 69.1101 184.104 69.1101 184.066 69.1036C183.752 68.6783 183.377 68.3027 182.951 67.9894C182.945 67.951 182.945 67.9118 182.951 67.8734L183.069 67.1207C183.075 67.0622 183.064 67.0031 183.035 66.9518C183.006 66.9005 182.962 66.8595 182.908 66.8347L181.457 66.2304C181.402 66.2087 181.342 66.2055 181.285 66.2213C181.228 66.2372 181.178 66.2712 181.143 66.3181L180.692 66.9332C180.668 66.9643 180.638 66.9908 180.604 67.0114C180.083 66.9325 179.552 66.9325 179.03 67.0114C178.997 66.9908 178.967 66.9649 178.943 66.9345L178.493 66.3167C178.456 66.2707 178.406 66.2375 178.349 66.222C178.292 66.2065 178.232 66.2094 178.176 66.2304L176.734 66.8266C176.682 66.8512 176.638 66.8917 176.609 66.9426C176.581 66.9934 176.569 67.0519 176.575 67.1099L176.693 67.8653C176.699 67.9041 176.699 67.9438 176.693 67.9826C176.268 68.2955 175.893 68.6707 175.58 69.0955C175.541 69.1021 175.501 69.1021 175.462 69.0955L174.708 68.9781C174.65 68.9703 174.591 68.9816 174.54 69.0103C174.489 69.039 174.449 69.0836 174.425 69.1373L173.828 70.5793C173.807 70.6342 173.805 70.6941 173.821 70.7505C173.836 70.8069 173.87 70.857 173.915 70.8936L174.534 71.3562C174.565 71.3805 174.592 71.4102 174.613 71.4439C174.533 71.9661 174.533 72.4973 174.613 73.0194C174.592 73.0522 174.566 73.081 174.536 73.1044L173.919 73.5549C173.873 73.5914 173.84 73.6414 173.824 73.6978C173.809 73.7543 173.811 73.8143 173.832 73.8692L174.428 75.3085C174.451 75.3624 174.491 75.4073 174.542 75.4363C174.594 75.4653 174.653 75.4768 174.711 75.469L175.466 75.3517C175.505 75.3478 175.545 75.3505 175.582 75.3597C175.895 75.7841 176.271 76.1589 176.695 76.4712C176.703 76.51 176.703 76.5498 176.695 76.5886L176.579 77.344C176.573 77.4021 176.585 77.4606 176.614 77.5114C176.643 77.5622 176.687 77.6027 176.74 77.6272L178.18 78.2235C178.235 78.2436 178.295 78.246 178.352 78.2303C178.408 78.2146 178.458 78.1815 178.495 78.1358L178.947 77.5207C178.971 77.4899 179 77.4635 179.033 77.4424C179.555 77.5214 180.085 77.5214 180.607 77.4424C180.64 77.463 180.669 77.489 180.693 77.5193L181.144 78.1371C181.181 78.1828 181.231 78.2157 181.287 78.2312C181.344 78.2467 181.403 78.244 181.458 78.2235L182.899 77.6272C182.953 77.6037 182.997 77.5634 183.026 77.5123C183.055 77.4612 183.066 77.4021 183.058 77.344L182.941 76.5886C182.936 76.5498 182.939 76.5104 182.949 76.4726C183.373 76.1602 183.748 75.7855 184.06 75.3611C184.1 75.3538 184.14 75.3538 184.179 75.3611L184.933 75.4771C184.991 75.4849 185.05 75.4734 185.102 75.4444C185.153 75.4154 185.193 75.3705 185.216 75.3166L185.814 73.876C185.837 73.82 185.841 73.7581 185.826 73.6995C185.811 73.6408 185.778 73.5887 185.73 73.5509Z" fill="white"/>
<path d="M182.477 71.1243C182.694 71.65 182.751 72.2284 182.64 72.7865C182.529 73.3445 182.255 73.8572 181.853 74.2595C181.451 74.6619 180.938 74.936 180.38 75.0471C179.822 75.1582 179.244 75.1013 178.718 74.8837C178.192 74.6661 177.743 74.2975 177.427 73.8245C177.11 73.3515 176.942 72.7954 176.941 72.2264C176.941 71.6574 177.11 71.1012 177.425 70.6279C177.741 70.1547 178.19 69.7857 178.716 69.5677C179.065 69.4227 179.439 69.3479 179.817 69.3477C180.195 69.3474 180.57 69.4217 180.919 69.5663C181.268 69.7109 181.586 69.9229 181.853 70.1902C182.12 70.4576 182.332 70.775 182.477 71.1243Z" fill="#4B22CC"/>
<path style="mix-blend-mode:color-burn" d="M185.11 71.3563L185.725 70.9057C185.771 70.8692 185.804 70.8191 185.819 70.7627C185.835 70.7063 185.833 70.6464 185.813 70.5914L185.42 69.6472H174.224L173.83 70.5914C173.81 70.6464 173.808 70.7063 173.823 70.7627C173.839 70.8191 173.872 70.8692 173.918 70.9057L174.534 71.3563C174.566 71.3806 174.592 71.4103 174.613 71.4439C174.533 71.9661 174.533 72.4973 174.613 73.0195C174.592 73.0523 174.566 73.0811 174.536 73.1044L173.919 73.555C173.873 73.5914 173.84 73.6414 173.824 73.6979C173.809 73.7543 173.811 73.8143 173.832 73.8693L174.428 75.3085C174.451 75.3625 174.491 75.4074 174.543 75.4363C174.594 75.4653 174.653 75.4768 174.711 75.4691L175.467 75.3517C175.505 75.3478 175.545 75.3505 175.583 75.3598C175.895 75.7842 176.271 76.1589 176.695 76.4713C176.703 76.5101 176.703 76.5499 176.695 76.5886L176.579 77.344C176.573 77.4021 176.585 77.4607 176.614 77.5115C176.643 77.5623 176.687 77.6028 176.74 77.6273L178.18 78.2235C178.235 78.2437 178.295 78.2461 178.352 78.2304C178.408 78.2146 178.458 78.1816 178.495 78.1358L178.947 77.5207C178.971 77.49 179 77.4635 179.033 77.4425C179.555 77.5214 180.085 77.5214 180.607 77.4425C180.64 77.463 180.669 77.489 180.693 77.5194L181.144 78.1372C181.181 78.1828 181.231 78.2158 181.287 78.2313C181.344 78.2468 181.404 78.244 181.458 78.2235L182.899 77.6273C182.953 77.6038 182.997 77.5634 183.026 77.5123C183.055 77.4612 183.066 77.4021 183.058 77.344L182.941 76.5886C182.936 76.5498 182.939 76.5105 182.949 76.4726C183.373 76.1602 183.748 75.7855 184.06 75.3611C184.1 75.3539 184.14 75.3539 184.179 75.3611L184.933 75.4771C184.991 75.4849 185.051 75.4734 185.102 75.4444C185.153 75.4155 185.193 75.3706 185.216 75.3166L185.814 73.876C185.834 73.821 185.836 73.7611 185.821 73.7047C185.805 73.6483 185.772 73.5983 185.726 73.5617L185.11 73.1112C185.079 73.0872 185.053 73.0585 185.032 73.0262C185.111 72.504 185.111 71.9728 185.032 71.4507C185.052 71.4147 185.078 71.3827 185.11 71.3563Z" fill="url(#paint2_linear_2617_111)"/>
<path style="mix-blend-mode:color-burn" d="M25.1737 62.376L19.4692 62.4083L19.5286 66.0922L25.2223 66.0585L25.1737 62.376Z" fill="url(#paint3_linear_2617_111)"/>
<path d="M32.3215 66.4862L29.385 66.528C28.897 66.5327 28.427 66.3443 28.0773 66.004C27.7276 65.6636 27.5266 65.1989 27.5181 64.711L27.5046 63.6683C27.4988 63.1799 27.6868 62.7091 28.0273 62.359C28.3678 62.0089 28.8332 61.8079 29.3215 61.8001L32.2595 61.761C31.7398 60.9936 30.9864 60.4144 30.1114 60.1093C29.2363 59.8042 28.2862 59.7894 27.402 60.0673C26.5179 60.3451 25.747 60.9007 25.2038 61.6516C24.6606 62.4024 24.374 63.3084 24.3867 64.2351C24.3994 65.1618 24.7106 66.0596 25.2742 66.7953C25.8377 67.531 26.6236 68.0653 27.5149 68.3189C28.4063 68.5724 29.3557 68.5317 30.2221 68.2027C31.0885 67.8738 31.8257 67.2742 32.3242 66.4929L32.3215 66.4862Z" fill="#2E5FB7"/>
<g style="mix-blend-mode:color-burn" opacity="0.5">
<path d="M25.4003 64.7149L25.3895 63.7099C25.3639 62.0063 26.791 60.598 28.5675 60.5778L29.2055 60.5684C29.246 60.5684 29.2847 60.5844 29.3133 60.613C29.3419 60.6416 29.358 60.6804 29.358 60.7208C29.358 60.7612 29.3419 60.8 29.3133 60.8286C29.2847 60.8571 29.246 60.8732 29.2055 60.8732L28.5675 60.884C26.9583 60.9069 25.666 62.1749 25.6903 63.7045L25.7038 64.7108C25.724 66.2472 27.0527 67.4761 28.6552 67.4558L29.2946 67.4464C29.3352 67.447 29.374 67.4632 29.4031 67.4915C29.4322 67.5199 29.4493 67.5582 29.451 67.5988C29.4514 67.6395 29.4358 67.6787 29.4075 67.708C29.3792 67.7372 29.3406 67.7542 29.3 67.7553L28.6619 67.762C26.8881 67.7863 25.4246 66.4199 25.4003 64.7149Z" fill="url(#paint4_linear_2617_111)"/>
</g>
<path d="M17.8114 59.4677C21.4602 59.4677 24.6355 57.3567 26.3095 54.234C26.3965 54.0716 26.5259 53.9358 26.684 53.8412C26.8421 53.7465 27.0229 53.6965 27.2072 53.6965C27.3914 53.6965 27.5722 53.7465 27.7303 53.8412C27.8884 53.9358 28.0179 54.0716 28.1049 54.234C29.7735 57.3567 32.9488 59.4677 36.6029 59.4677C37.1116 59.4654 37.6193 59.4203 38.1204 59.3328C38.2658 59.3097 38.4144 59.3185 38.556 59.3586C38.6976 59.3987 38.8288 59.4691 38.9404 59.565C39.0521 59.6609 39.1415 59.7799 39.2026 59.9138C39.2636 60.0477 39.2948 60.1933 39.294 60.3404V71.7737C39.294 80.1814 29.7074 82.9493 27.6139 83.4538C27.3505 83.5172 27.0759 83.5172 26.8126 83.4538C24.7191 82.9493 15.1325 80.1814 15.1325 71.7737V60.3472C15.1317 60.2 15.1629 60.0544 15.2239 59.9205C15.285 59.7866 15.3744 59.6676 15.4861 59.5718C15.5977 59.4759 15.7289 59.4055 15.8705 59.3654C16.0121 59.3253 16.1607 59.3165 16.3061 59.3396C16.8034 59.4242 17.3069 59.467 17.8114 59.4677Z" fill="#1A1A1A"/>
<path d="M26.8301 80.651C27.0789 80.7211 27.3422 80.7211 27.5909 80.651C29.1296 80.2174 30.6075 79.5915 31.9896 78.7881C35.0719 76.955 36.5759 74.6619 36.5759 71.7739V62.7875C36.5754 62.6293 36.514 62.4773 36.4045 62.3631C36.2951 62.2488 36.1459 62.181 35.9878 62.1738C32.8096 61.9958 29.8251 60.5892 27.6651 58.2512C27.6076 58.1893 27.538 58.1399 27.4606 58.1061C27.3832 58.0724 27.2997 58.0549 27.2152 58.0549C27.1308 58.0549 27.0472 58.0724 26.9698 58.1061C26.8924 58.1399 26.8228 58.1893 26.7654 58.2512C24.6055 60.5887 21.6216 61.9952 18.444 62.1738C18.2858 62.1807 18.1364 62.2484 18.0269 62.3627C17.9173 62.477 17.8561 62.6292 17.8559 62.7875V71.7806C17.8559 74.6619 19.3545 76.955 22.4421 78.7949C23.8214 79.5948 25.2955 80.2184 26.8301 80.651Z" fill="#4B22CC"/>
<path d="M29.4564 68.6011C29.4587 68.2025 29.3552 67.8104 29.1565 67.4649C28.9577 67.1194 28.6709 66.8328 28.3252 66.6344C27.9795 66.436 27.5873 66.3328 27.1887 66.3355C26.7902 66.3382 26.3994 66.4465 26.0564 66.6496C25.7134 66.8526 25.4304 67.143 25.2363 67.4911C25.0422 67.8393 24.9439 68.2327 24.9516 68.6312C24.9592 69.0297 25.0724 69.4191 25.2797 69.7595C25.487 70.1 25.7809 70.3794 26.1314 70.5691V72.1999C26.1314 72.485 26.2442 72.7584 26.4451 72.9606C26.646 73.1628 26.9187 73.2773 27.2038 73.2791C27.49 73.2791 27.7644 73.1654 27.9668 72.963C28.1692 72.7606 28.2829 72.4861 28.2829 72.1999V70.5691C28.6375 70.3771 28.9337 70.0928 29.1403 69.7465C29.3468 69.4001 29.456 69.0044 29.4564 68.6011Z" fill="white"/>
<path d="M77.4894 0.012207H102.66C102.903 0.0129188 103.136 0.109785 103.308 0.281649C103.479 0.453513 103.576 0.686409 103.577 0.92946V21.028C103.576 21.2711 103.479 21.504 103.308 21.6758C103.136 21.8477 102.903 21.9446 102.66 21.9453H98.4216V25.0477C98.4216 25.5954 98.1046 25.7222 97.7175 25.3405L94.325 21.9466H77.4894C77.2466 21.9456 77.014 21.8485 76.8424 21.6767C76.6709 21.5049 76.5742 21.2722 76.5735 21.0294V0.930806C76.5738 0.687754 76.6704 0.454721 76.842 0.282604C77.0136 0.110487 77.2463 0.0132759 77.4894 0.012207Z" fill="#4B22CC"/>
<path d="M90.0746 4.41066C88.3489 4.40832 86.6397 4.74738 85.0456 5.40832C83.4515 6.06926 82.0039 7.03902 80.7861 8.26176L82.1633 9.63763C83.2008 8.59818 84.4331 7.77352 85.7897 7.21087C87.1463 6.64821 88.6005 6.35859 90.0692 6.35859C91.5378 6.35859 92.9921 6.64821 94.3487 7.21087C95.7052 7.77352 96.9376 8.59818 97.9751 9.63763L99.3523 8.26176C98.1358 7.04031 96.6899 6.07129 95.0977 5.41039C93.5056 4.74949 91.7985 4.40974 90.0746 4.41066ZM85.5679 13.0369L86.9451 14.4141C87.3558 14.0023 87.8436 13.6755 88.3808 13.4526C88.9179 13.2297 89.4937 13.1149 90.0753 13.1149C90.6568 13.1149 91.2326 13.2297 91.7698 13.4526C92.3069 13.6755 92.7947 14.0023 93.2054 14.4141L94.5826 13.0369C93.9911 12.4442 93.2885 11.974 92.5151 11.6532C91.7417 11.3324 90.9126 11.1673 90.0753 11.1673C89.2379 11.1673 88.4088 11.3324 87.6354 11.6532C86.862 11.974 86.1594 12.4442 85.5679 13.0369ZM88.062 15.5323L90.0746 17.5449L92.0871 15.5323C91.8228 15.268 91.5091 15.0584 91.1638 14.9153C90.8185 14.7723 90.4483 14.6987 90.0746 14.6987C89.7008 14.6987 89.3307 14.7723 88.9854 14.9153C88.6401 15.0584 88.3263 15.268 88.062 15.5323ZM83.1588 10.6277L84.5347 12.0049C85.2614 11.2761 86.1249 10.6979 87.0755 10.3033C88.0262 9.90875 89.0453 9.70566 90.0746 9.70566C91.1038 9.70566 92.123 9.90875 93.0736 10.3033C94.0243 10.6979 94.8877 11.2761 95.6145 12.0049L96.9917 10.6277C96.0841 9.71825 95.006 8.99672 93.8192 8.50441C92.6324 8.0121 91.3601 7.7587 90.0753 7.7587C88.7904 7.7587 87.5181 8.0121 86.3313 8.50441C85.1445 8.99672 84.0664 9.71825 83.1588 10.6277Z" fill="white"/>
<path style="mix-blend-mode:color-burn" d="M76.5735 5.64906V21.0265C76.5742 21.2693 76.6709 21.502 76.8424 21.6738C77.014 21.8456 77.2466 21.9427 77.4894 21.9437H94.325L97.7175 25.3376C98.1046 25.7247 98.4216 25.5925 98.4216 25.0448V21.9424H102.66C102.903 21.9417 103.136 21.8448 103.308 21.6729C103.479 21.5011 103.576 21.2682 103.577 21.0251V5.64771L76.5735 5.64906Z" fill="url(#paint5_linear_2617_111)"/>
<path d="M115.635 13.4512H100.808C100.565 13.4522 100.332 13.5493 100.161 13.7211C99.9892 13.8929 99.8926 14.1256 99.8918 14.3684V24.701C99.8926 24.9438 99.9892 25.1765 100.161 25.3483C100.332 25.5201 100.565 25.6172 100.808 25.6182H102.841V28.7207C102.841 29.2697 103.158 29.3951 103.546 29.0134L106.938 25.6196H115.635C115.878 25.6185 116.11 25.5215 116.282 25.3497C116.453 25.1778 116.55 24.9451 116.551 24.7023V14.3698C116.55 14.1267 116.454 13.8937 116.282 13.7216C116.111 13.5494 115.878 13.4522 115.635 13.4512Z" fill="#1A1A1A"/>
<path d="M111.761 19.5347C111.761 19.7824 111.834 20.0244 111.972 20.2303C112.109 20.4362 112.305 20.5966 112.534 20.6914C112.763 20.7861 113.014 20.8108 113.257 20.7624C113.5 20.714 113.723 20.5946 113.898 20.4194C114.073 20.2442 114.192 20.021 114.24 19.7781C114.289 19.5352 114.264 19.2835 114.169 19.0548C114.074 18.8261 113.913 18.6306 113.707 18.4933C113.501 18.3559 113.259 18.2827 113.011 18.283C112.679 18.2833 112.361 18.4154 112.127 18.6501C111.892 18.8848 111.761 19.203 111.761 19.5347Z" fill="#F5F5F5"/>
<path d="M106.969 19.5347C106.969 19.7823 107.043 20.0243 107.18 20.2302C107.318 20.436 107.514 20.5965 107.742 20.6912C107.971 20.786 108.223 20.8108 108.465 20.7625C108.708 20.7142 108.931 20.5949 109.106 20.4199C109.281 20.2448 109.401 20.0218 109.449 19.7789C109.497 19.5361 109.472 19.2844 109.378 19.0557C109.283 18.827 109.123 18.6315 108.917 18.4939C108.711 18.3564 108.469 18.283 108.221 18.283C107.889 18.2833 107.571 18.4153 107.337 18.65C107.102 18.8847 106.97 19.2029 106.969 19.5347Z" fill="#F5F5F5"/>
<path d="M102.18 19.5347C102.18 19.7823 102.253 20.0243 102.391 20.2302C102.528 20.436 102.724 20.5965 102.952 20.6912C103.181 20.786 103.433 20.8108 103.676 20.7625C103.918 20.7142 104.141 20.5949 104.316 20.4199C104.492 20.2448 104.611 20.0218 104.659 19.7789C104.707 19.5361 104.683 19.2844 104.588 19.0557C104.493 18.827 104.333 18.6315 104.127 18.4939C103.921 18.3564 103.679 18.283 103.431 18.283C103.099 18.283 102.781 18.4148 102.546 18.6496C102.311 18.8843 102.18 19.2027 102.18 19.5347Z" fill="#F5F5F5"/>
<path style="mix-blend-mode:color-burn" d="M99.8918 15.604V24.7023C99.8929 24.9449 99.9897 25.1772 100.161 25.3488C100.333 25.5203 100.565 25.6172 100.808 25.6182H102.841V28.7207C102.841 29.2697 103.158 29.3951 103.546 29.0134L106.938 25.6196H115.635C115.877 25.6185 116.11 25.5217 116.281 25.3501C116.453 25.1786 116.55 24.9463 116.551 24.7037V15.604H99.8918Z" fill="url(#paint6_linear_2617_111)"/>
</g>
</g>
<defs>
<linearGradient id="paint0_linear_2617_111" x1="40.7737" y1="207.602" x2="60.8359" y2="196.976" gradientUnits="userSpaceOnUse">
<stop stop-color="white"/>
<stop offset="1" stop-color="#A0A0A0"/>
</linearGradient>
<linearGradient id="paint1_linear_2617_111" x1="128.769" y1="76.7913" x2="128.769" y2="120.707" gradientUnits="userSpaceOnUse">
<stop stop-color="white"/>
<stop offset="1" stop-color="#959595"/>
</linearGradient>
<linearGradient id="paint2_linear_2617_111" x1="179.818" y1="69.9305" x2="179.818" y2="78.4865" gradientUnits="userSpaceOnUse">
<stop stop-color="white"/>
<stop offset="1" stop-color="#808080"/>
</linearGradient>
<linearGradient id="paint3_linear_2617_111" x1="20.0384" y1="64.2334" x2="25.3639" y2="64.2334" gradientUnits="userSpaceOnUse">
<stop stop-color="white"/>
<stop offset="1" stop-color="#B3B3B3"/>
</linearGradient>
<linearGradient id="paint4_linear_2617_111" x1="28.8777" y1="64.1598" x2="24.8354" y2="64.2149" gradientUnits="userSpaceOnUse">
<stop stop-color="white"/>
<stop offset="1" stop-color="#404040"/>
</linearGradient>
<linearGradient id="paint5_linear_2617_111" x1="90.0746" y1="6.35588" x2="90.0746" y2="24.0534" gradientUnits="userSpaceOnUse">
<stop stop-color="white"/>
<stop offset="1" stop-color="#959595"/>
</linearGradient>
<linearGradient id="paint6_linear_2617_111" x1="108.221" y1="16.6103" x2="108.221" y2="28.7045" gradientUnits="userSpaceOnUse">
<stop stop-color="white"/>
<stop offset="1" stop-color="#959595"/>
</linearGradient>
<clipPath id="clip0_2617_111">
<rect width="223.849" height="224.881" fill="white"/>
</clipPath>
<clipPath id="clip1_2617_111">
<rect width="204.898" height="208" fill="white" transform="translate(13.4761)"/>
</clipPath>
</defs>
</svg>
