<svg width="270" height="48" viewBox="0 0 270 48" fill="none" xmlns="http://www.w3.org/2000/svg">
<path fill-rule="evenodd" clip-rule="evenodd" d="M18.8529 28.9894C18.8529 35.5796 27.4059 35.0854 27.4059 35.0854L27.4368 24.9709H46.2543V33.3035C46.2543 35.1079 45.8989 36.8946 45.2084 38.5616C44.5179 40.2287 43.5058 41.7435 42.2299 43.0194C40.9539 44.2953 39.4392 45.3074 37.7721 45.998C36.1051 46.6885 34.3183 47.0439 32.5139 47.0439H16.3165C15.3967 47.1311 14.4706 47.1311 13.5508 47.0439C11.7702 47.0439 10.007 46.6929 8.36206 46.0111C6.71714 45.3293 5.22273 44.33 3.96425 43.0702C2.70577 41.8105 1.70792 40.3151 1.02771 38.6695C0.347498 37.0239 -0.00173243 35.2605 6.46186e-06 33.4799V0H6.67394C9.90597 0.00350778 13.0044 1.29015 15.2881 3.5772C17.5718 5.86424 18.854 8.96449 18.8529 12.1965V28.9894ZM44.6487 26.5942H29.0733L29.0336 35.0899C29.0336 37.4057 28.7998 40.4141 26.978 43.1004C26.3884 43.9673 25.6716 44.7405 24.8519 45.3941H32.5448C35.7539 45.3906 38.8305 44.1143 41.0997 41.8451C43.3689 39.576 44.6452 36.4993 44.6487 33.2902V26.5942ZM30.6436 3.2119C32.7001 1.15539 35.4893 9.63531e-05 38.3976 9.63531e-05H46.2758V17.5429H27.4318V10.9659C27.4318 8.05759 28.5871 5.2684 30.6436 3.2119ZM92.7385 9.37626C92.9725 9.37626 93.1969 9.46917 93.3623 9.63461C93.5278 9.80006 93.6207 10.0245 93.6207 10.2585V26.0147C93.6207 37.0424 86.563 38.5686 78.4908 38.5686C70.4186 38.5686 63.3609 37.0556 63.3609 26.0147V10.2585C63.3609 10.0245 63.4538 9.80006 63.6193 9.63461C63.7847 9.46917 64.0091 9.37626 64.2431 9.37626H70.6347C70.8687 9.37626 71.0931 9.46917 71.2585 9.63461C71.424 9.80006 71.5169 10.0245 71.5169 10.2585V26.0147C71.5169 31.8638 74.6046 32.8033 78.5084 32.8033C82.4122 32.8033 85.5 31.8638 85.5 26.0147V10.2585C85.5 10.0245 85.5929 9.80006 85.7583 9.63461C85.9238 9.46917 86.1482 9.37626 86.3822 9.37626H92.7385ZM104.599 19.0719H99.0102C98.7911 19.0585 98.5757 19.1321 98.4105 19.2766C98.2454 19.4211 98.1438 19.6249 98.128 19.8438V37.2277C98.1438 37.4466 98.2454 37.6504 98.4105 37.7949C98.5757 37.9394 98.7911 38.013 99.0102 37.9997H104.599C104.818 38.0118 105.033 37.9379 105.198 37.7936C105.362 37.6494 105.464 37.4462 105.481 37.2277V19.8438C105.464 19.6253 105.362 19.4222 105.198 19.2779C105.033 19.1336 104.818 19.0597 104.599 19.0719ZM135.001 26.2651H141.617C141.752 26.2618 141.885 26.2892 142.007 26.3451C142.129 26.4011 142.236 26.4841 142.321 26.5879C142.407 26.6917 142.467 26.8134 142.498 26.944C142.529 27.0746 142.529 27.2106 142.5 27.3415C140.66 35.5284 133.069 38.572 125.813 38.572C117.551 38.572 108.76 34.6021 108.76 23.6847C108.76 12.7674 117.551 8.76209 125.813 8.76209C133.069 8.76209 140.66 11.8498 142.5 20.0324C142.529 20.1633 142.529 20.2991 142.498 20.4297C142.467 20.5603 142.407 20.6822 142.321 20.786C142.236 20.8898 142.129 20.9728 142.007 21.0287C141.885 21.0846 141.752 21.1119 141.617 21.1086H135.001C134.809 21.1093 134.621 21.0473 134.468 20.9318C134.314 20.8163 134.202 20.6538 134.15 20.469C133.131 16.9005 130.621 14.5274 125.808 14.5274C119.959 14.5274 117.017 18.1268 117.017 23.6847C117.017 29.2427 119.959 32.8068 125.808 32.8068C130.638 32.8068 133.131 30.4381 134.15 26.9004C134.203 26.7164 134.315 26.5548 134.469 26.4402C134.622 26.3256 134.809 26.2642 135.001 26.2651ZM170.342 37.1826V23.6362H170.337C170.337 18.7488 166.822 15.661 161.219 15.661C158.546 15.6018 155.957 16.6006 154.016 18.44C153.948 18.5062 153.862 18.5507 153.769 18.5681C153.676 18.5854 153.579 18.5748 153.492 18.5376C153.405 18.5003 153.331 18.4381 153.279 18.3587C153.227 18.2793 153.199 18.1864 153.2 18.0915V10.3325C153.2 10.0986 153.107 9.87413 152.942 9.70868C152.776 9.54324 152.552 9.45033 152.318 9.45033H146.734C146.5 9.45033 146.275 9.54324 146.11 9.70868C145.944 9.87413 145.851 10.0986 145.851 10.3325V37.1826C145.851 37.4166 145.944 37.641 146.11 37.8064C146.275 37.9719 146.5 38.0648 146.734 38.0648H152.336C152.57 38.0648 152.794 37.9719 152.959 37.8064C153.125 37.641 153.218 37.4166 153.218 37.1826V25.2727C153.218 22.8599 154.943 21.0161 158.211 21.0161C161.48 21.0161 162.993 22.8599 162.993 25.2727V37.1826C162.993 37.4166 163.086 37.641 163.251 37.8064C163.417 37.9719 163.641 38.0648 163.875 38.0648H169.459C169.693 38.0648 169.918 37.9719 170.083 37.8064C170.249 37.641 170.342 37.4166 170.342 37.1826ZM181.03 28.7225C180.964 28.7251 180.9 28.7423 180.843 28.7727C180.785 28.8032 180.734 28.8462 180.695 28.8985C180.656 28.9509 180.628 29.0113 180.615 29.0755C180.602 29.1396 180.604 29.2059 180.62 29.2694C181.334 31.7661 183.315 33.5481 186.822 33.5481C189.861 33.5481 191.493 32.4322 192.415 30.8398C192.456 30.768 192.515 30.7083 192.586 30.6665C192.657 30.6247 192.738 30.6023 192.821 30.6016H198.67C198.72 30.6012 198.769 30.6125 198.815 30.6344C198.86 30.6564 198.899 30.6885 198.93 30.7282C198.961 30.7679 198.982 30.8141 198.992 30.8633C199.002 30.9125 199 30.9633 198.987 31.0118C197.448 36.5123 192.212 38.5768 186.822 38.5768C180.567 38.5768 173.738 35.3038 173.738 27.086C173.738 18.8682 180.567 15.5951 186.822 15.5951C193.076 15.5951 199.786 19.1592 199.45 28.1357C199.442 28.2941 199.374 28.4434 199.259 28.5526C199.144 28.6618 198.991 28.7227 198.833 28.7225H181.03ZM181.418 24.4702H191.938C192.008 24.4675 192.075 24.4483 192.136 24.4145C192.196 24.3806 192.248 24.333 192.287 24.2754C192.326 24.2178 192.35 24.1519 192.359 24.0831C192.367 24.0142 192.359 23.9443 192.335 23.8791C191.533 21.9162 189.839 20.6238 186.817 20.6238C183.796 20.6238 181.965 21.9471 181.025 23.857C180.998 23.9227 180.986 23.9942 180.992 24.0653C180.998 24.1364 181.021 24.2051 181.059 24.2654C181.097 24.3257 181.149 24.3759 181.211 24.4115C181.273 24.4472 181.342 24.4674 181.414 24.4702H181.418ZM241.342 37.1167V23.5704H241.373C241.373 18.6829 238.224 15.5951 232.622 15.5951C228.674 15.5951 225.851 18.1712 225.013 19.2608C224.994 19.2841 224.971 19.3024 224.944 19.3142C224.917 19.3259 224.887 19.3308 224.858 19.3282C224.828 19.3255 224.8 19.3155 224.775 19.2991C224.751 19.2827 224.731 19.2604 224.717 19.2343C223.363 16.9185 220.716 15.5951 217.042 15.5951C215.785 15.5949 214.544 15.8775 213.41 16.4219C212.277 16.9663 211.281 17.7587 210.496 18.7403C210.474 18.7719 210.443 18.7955 210.407 18.8078C210.37 18.8201 210.331 18.8203 210.295 18.8083C210.259 18.7964 210.227 18.7729 210.205 18.7416C210.183 18.7102 210.172 18.6726 210.174 18.6344V17.095C210.174 16.861 210.081 16.6366 209.915 16.4711C209.75 16.3057 209.525 16.2128 209.292 16.2128H205.635C204.888 16.2139 204.172 16.5114 203.645 17.0398C203.117 17.5683 202.821 18.2846 202.821 19.0314V37.1167C202.821 37.3507 202.913 37.5751 203.079 37.7406C203.244 37.906 203.469 37.9989 203.703 37.9989H209.287C209.521 37.9989 209.746 37.906 209.911 37.7406C210.076 37.5751 210.169 37.3507 210.169 37.1167V25.2069C210.169 22.1368 212.132 20.9502 214.377 20.9502C216.623 20.9502 218.387 22.0132 218.387 25.2069V37.1167C218.387 37.3507 218.48 37.5751 218.646 37.7406C218.811 37.906 219.035 37.9989 219.269 37.9989H224.854C225.088 37.9989 225.312 37.906 225.478 37.7406C225.643 37.5751 225.736 37.3507 225.736 37.1167V25.2069C225.736 22.1368 227.708 20.9502 229.949 20.9502C232.189 20.9502 233.954 22.0132 233.954 25.2069V37.1167C233.954 37.3507 234.047 37.5751 234.212 37.7406C234.378 37.906 234.602 37.9989 234.836 37.9989H240.46C240.694 37.9989 240.918 37.906 241.084 37.7406C241.249 37.5751 241.342 37.3507 241.342 37.1167ZM269.573 17.4638L257.297 44.314C257.227 44.4695 257.114 44.6013 256.971 44.6937C256.828 44.7861 256.661 44.835 256.49 44.8345H250.99C250.837 44.8367 250.686 44.7992 250.552 44.7255C250.417 44.6518 250.305 44.5445 250.225 44.4141C250.145 44.2838 250.1 44.1349 250.095 43.982C250.09 43.8291 250.124 43.6775 250.195 43.5421L253.098 37.865C253.159 37.7424 253.191 37.6072 253.191 37.4702C253.191 37.3331 253.159 37.1979 253.098 37.0754L243.588 17.4903C243.52 17.3549 243.489 17.2043 243.497 17.0532C243.504 16.9021 243.551 16.7555 243.631 16.6275C243.712 16.4995 243.824 16.3944 243.957 16.3222C244.09 16.25 244.239 16.2134 244.391 16.2156H250.032C250.206 16.2149 250.377 16.2655 250.522 16.3613C250.667 16.457 250.781 16.5936 250.848 16.7537L256.274 29.4002C256.311 29.4713 256.368 29.5308 256.436 29.5724C256.505 29.6139 256.584 29.6359 256.664 29.6359C256.745 29.6359 256.824 29.6139 256.892 29.5724C256.961 29.5308 257.017 29.4713 257.055 29.4002L262.251 16.7757C262.317 16.6124 262.43 16.4726 262.577 16.3743C262.723 16.2761 262.895 16.2238 263.071 16.2243H268.744C268.893 16.2228 269.04 16.2594 269.172 16.3303C269.303 16.4012 269.414 16.5043 269.495 16.6299C269.576 16.7555 269.623 16.8995 269.633 17.0485C269.643 17.1974 269.615 17.3464 269.551 17.4815L269.573 17.4638ZM98.1241 15.3451V11.6531L98.1285 11.6575C98.1285 10.8912 98.433 10.1563 98.9748 9.6145C99.5166 9.07267 100.252 8.76826 101.018 8.76826H104.6C104.834 8.76826 105.058 8.86117 105.223 9.02661C105.389 9.19206 105.482 9.4165 105.482 9.65047V15.3451C105.482 15.5791 105.389 15.8035 105.223 15.969C105.058 16.1344 104.834 16.2273 104.6 16.2273H99.0063C98.7724 16.2273 98.548 16.1344 98.3825 15.969C98.2171 15.8035 98.1241 15.5791 98.1241 15.3451Z" fill="white"/>
</svg>
