<svg width="20" height="20" viewBox="0 0 20 20" fill="none" xmlns="http://www.w3.org/2000/svg">
<g id="blogging 1" clip-path="url(#clip0_552_754)">
<g id="Group">
<g id="Group_2">
<g id="Group_3">
<path id="Vector" d="M15.0674 9.00881e-05H4.96424C4.88139 -0.000495851 4.79745 0.00176978 4.71342 0.00708229C2.9808 0.119426 1.62354 1.61005 1.62354 3.401V14.401C1.62354 15.49 2.36268 16.4097 3.36577 16.6843V19.375C3.36577 19.6144 3.50264 19.8328 3.71795 19.9373C3.80459 19.9794 3.89784 20 3.99061 20C4.12858 20 4.2653 19.9545 4.37772 19.8659L8.3073 16.7681H13.4216C14.7268 16.7681 15.7887 15.7062 15.7887 14.401V5.21826H17.7514C17.9171 5.21826 18.0761 5.15248 18.1933 5.03518C18.3104 4.91799 18.3763 4.75901 18.3763 4.5933V3.30912C18.3764 1.48451 16.892 9.00881e-05 15.0674 9.00881e-05ZM13.4216 15.5181H8.09066C7.95027 15.5181 7.81402 15.5654 7.7037 15.6522L4.61577 18.0866V16.1431C4.61577 15.7979 4.33592 15.5181 3.99077 15.5181C3.37475 15.5181 2.8735 15.017 2.8735 14.401V3.401C2.8735 2.26713 3.71717 1.32427 4.79428 1.2547C4.83913 1.25162 4.88385 1.25013 4.92839 1.25013C4.92975 1.25013 4.93112 1.25013 4.93249 1.25013H4.94225C5.46487 1.25244 5.95651 1.44697 6.33995 1.80646C6.75999 2.20013 6.99132 2.73388 6.99132 3.30916V4.59334C6.99132 4.9385 7.27116 5.21834 7.61632 5.21834H14.5386V14.401H14.5386C14.5387 15.017 14.0375 15.5181 13.4216 15.5181ZM17.1265 3.9683H8.2414V3.30912C8.2414 2.56006 7.98351 1.83177 7.52226 1.25009H15.0674C16.2028 1.25009 17.1264 2.17369 17.1264 3.30912L17.1265 3.9683Z" fill="black"/>
<path id="Vector_2" d="M12.5625 7.10938H5.21875C4.95977 7.10938 4.75 7.31934 4.75 7.57813C4.75 7.83692 4.95981 8.04688 5.21875 8.04688H12.5625C12.8214 8.04688 13.0312 7.83692 13.0312 7.57813C13.0313 7.31934 12.8214 7.10938 12.5625 7.10938Z" fill="black"/>
<path id="Vector_3" d="M12.5624 9.72656H5.21875C4.95981 9.72656 4.75 9.93652 4.75 10.1953C4.75 10.4541 4.95981 10.6641 5.21875 10.6641H12.5625C12.8214 10.6641 13.0312 10.4541 13.0312 10.1953C13.0313 9.93652 12.8214 9.72656 12.5624 9.72656Z" fill="black"/>
<path id="Vector_4" d="M12.5624 12.3438H5.21875C4.95981 12.3438 4.75 12.5537 4.75 12.8125C4.75 13.0713 4.95981 13.2813 5.21875 13.2813H12.5625C12.8214 13.2813 13.0312 13.0713 13.0312 12.8125C13.0312 12.5537 12.8214 12.3438 12.5624 12.3438Z" fill="black"/>
</g>
</g>
</g>
</g>
<defs>
<clipPath id="clip0_552_754">
<rect width="20" height="20" fill="white"/>
</clipPath>
</defs>
</svg>
