<svg width="20" height="20" viewBox="0 0 20 20" fill="none" xmlns="http://www.w3.org/2000/svg">
<g id="document 1">
<g id="Layer 30">
<path id="Vector" d="M16.6687 4.53836L13.1938 1.41336C13.0791 1.30917 12.9299 1.25126 12.775 1.25086H5.1375C4.62279 1.23562 4.12283 1.42393 3.74608 1.77494C3.36933 2.12596 3.14616 2.61136 3.125 3.12586V16.8759C3.14616 17.3904 3.36933 17.8758 3.74608 18.2268C4.12283 18.5778 4.62279 18.7661 5.1375 18.7509H14.8625C15.3772 18.7661 15.8772 18.5778 16.2539 18.2268C16.6307 17.8758 16.8538 17.3904 16.875 16.8759V5.00086C16.8748 4.91364 16.8563 4.82744 16.8208 4.74778C16.7853 4.66813 16.7335 4.59679 16.6687 4.53836ZM15.3188 5.00086H13.125C12.9592 5.00086 12.8003 4.93501 12.6831 4.8178C12.5658 4.70059 12.5 4.54162 12.5 4.37586V2.50086H12.5375L15.3188 5.00086ZM15.625 16.8759C15.6045 17.0589 15.5133 17.2267 15.3709 17.3434C15.2284 17.4602 15.046 17.5167 14.8625 17.5009H5.1375C4.954 17.5167 4.77159 17.4602 4.62915 17.3434C4.48671 17.2267 4.39551 17.0589 4.375 16.8759V3.12586C4.39551 2.94283 4.48671 2.77505 4.62915 2.65829C4.77159 2.54154 4.954 2.48504 5.1375 2.50086H11.25V4.37586C11.25 4.87314 11.4475 5.35005 11.7992 5.70168C12.1508 6.05331 12.6277 6.25086 13.125 6.25086H15.625V16.8759ZM13.125 8.75086C13.125 8.91662 13.0592 9.07559 12.9419 9.1928C12.8247 9.31001 12.6658 9.37586 12.5 9.37586H7.5C7.33424 9.37586 7.17527 9.31001 7.05806 9.1928C6.94085 9.07559 6.875 8.91662 6.875 8.75086C6.875 8.5851 6.94085 8.42613 7.05806 8.30892C7.17527 8.19171 7.33424 8.12586 7.5 8.12586H12.5C12.6658 8.12586 12.8247 8.19171 12.9419 8.30892C13.0592 8.42613 13.125 8.5851 13.125 8.75086ZM13.125 11.8759C13.125 12.0416 13.0592 12.2006 12.9419 12.3178C12.8247 12.435 12.6658 12.5009 12.5 12.5009H7.5C7.33424 12.5009 7.17527 12.435 7.05806 12.3178C6.94085 12.2006 6.875 12.0416 6.875 11.8759C6.875 11.7101 6.94085 11.5511 7.05806 11.4339C7.17527 11.3167 7.33424 11.2509 7.5 11.2509H12.5C12.6658 11.2509 12.8247 11.3167 12.9419 11.4339C13.0592 11.5511 13.125 11.7101 13.125 11.8759ZM13.125 15.0009C13.125 15.1666 13.0592 15.3256 12.9419 15.4428C12.8247 15.56 12.6658 15.6259 12.5 15.6259H7.5C7.33424 15.6259 7.17527 15.56 7.05806 15.4428C6.94085 15.3256 6.875 15.1666 6.875 15.0009C6.875 14.8351 6.94085 14.6761 7.05806 14.5589C7.17527 14.4417 7.33424 14.3759 7.5 14.3759H12.5C12.6658 14.3759 12.8247 14.4417 12.9419 14.5589C13.0592 14.6761 13.125 14.8351 13.125 15.0009Z" fill="black"/>
</g>
</g>
</svg>
