<svg width="20" height="20" viewBox="0 0 20 20" fill="none" xmlns="http://www.w3.org/2000/svg">
<g id="home (2) 1">
<g id="Layer 2">
<path id="Vector" d="M16.6668 18.3329H13.3334C12.8914 18.3329 12.4675 18.1573 12.1549 17.8447C11.8424 17.5321 11.6668 17.1082 11.6668 16.6662V14.9995C11.6668 14.5575 11.4912 14.1336 11.1786 13.821C10.866 13.5084 10.4421 13.3329 10.0001 13.3329C9.55806 13.3329 9.13414 13.5084 8.82158 13.821C8.50902 14.1336 8.33342 14.5575 8.33342 14.9995V16.6662C8.33342 17.1082 8.15783 17.5321 7.84527 17.8447C7.53271 18.1573 7.10878 18.3329 6.66676 18.3329H3.33342C2.8914 18.3329 2.46747 18.1573 2.15491 17.8447C1.84235 17.5321 1.66676 17.1082 1.66676 16.6662V7.94952C1.66589 7.67435 1.73317 7.40325 1.86258 7.16042C1.992 6.91758 2.17952 6.71057 2.40842 6.55785L9.07509 2.11619C9.34897 1.93346 9.67084 1.83594 10.0001 1.83594C10.3293 1.83594 10.6512 1.93346 10.9251 2.11619L17.5918 6.55785C17.8207 6.71057 18.0082 6.91758 18.1376 7.16042C18.267 7.40325 18.3343 7.67435 18.3334 7.94952V16.6662C18.3334 17.1082 18.1578 17.5321 17.8453 17.8447C17.5327 18.1573 17.1088 18.3329 16.6668 18.3329ZM10.0001 11.6662C10.8841 11.6662 11.732 12.0174 12.3571 12.6425C12.9822 13.2676 13.3334 14.1155 13.3334 14.9995V16.6662H16.6668V7.94952L10.0001 3.49952L3.33342 7.94952V16.6662H6.66676V14.9995C6.66676 14.1155 7.01795 13.2676 7.64307 12.6425C8.26819 12.0174 9.11603 11.6662 10.0001 11.6662Z" fill="#232323"/>
<path id="Vector_2" d="M11.6667 9.9987H8.33333C8.11232 9.9987 7.90036 9.9109 7.74408 9.75462C7.5878 9.59834 7.5 9.38638 7.5 9.16536C7.5 8.94435 7.5878 8.73239 7.74408 8.57611C7.90036 8.41983 8.11232 8.33203 8.33333 8.33203H11.6667C11.8877 8.33203 12.0996 8.41983 12.2559 8.57611C12.4122 8.73239 12.5 8.94435 12.5 9.16536C12.5 9.38638 12.4122 9.59834 12.2559 9.75462C12.0996 9.9109 11.8877 9.9987 11.6667 9.9987Z" fill="#7FBDE7"/>
</g>
</g>
</svg>
