<svg width="20" height="20" viewBox="0 0 20 20" fill="none" xmlns="http://www.w3.org/2000/svg">
<g id="linkedin (1) 1" clip-path="url(#clip0_552_773)">
<path id="Vector" d="M5.21739 19.7946H0V6.31641H5.21739V19.7946ZM0.869512 18.925H4.34788V7.18592H0.869512V18.925Z" fill="black"/>
<path id="Vector_2" d="M20 19.7946H14.7826V12.4033C14.7826 11.683 14.1986 11.099 13.4783 11.099C12.7578 11.099 12.1739 11.683 12.1739 12.4033V19.7946H6.95654V6.31641H12.1739V7.19133C12.9614 6.62195 13.9087 6.31577 14.8804 6.31641C17.701 6.31641 20 8.60443 20 11.4196V19.7946ZM15.6521 18.9251H19.1304V11.4196C19.1245 9.07748 17.2226 7.18289 14.8804 7.18592C13.8098 7.18592 12.8043 7.637 12.0544 8.45221L11.3043 9.27284V7.18592H7.82606V18.9251H11.3043V12.4033C11.3043 11.2026 12.2776 10.2295 13.4783 10.2295C14.6788 10.2295 15.6521 11.2026 15.6521 12.4033V18.9251Z" fill="black"/>
<path id="Vector_3" d="M2.6087 5.44786C1.16789 5.44786 0 4.27997 0 2.83916C0 1.39852 1.16789 0.230469 2.6087 0.230469C4.0495 0.230469 5.21739 1.39852 5.21739 2.83916C5.21437 4.27869 4.04822 5.44499 2.6087 5.44786ZM2.6087 1.10014C1.64827 1.10014 0.869512 1.87874 0.869512 2.83916C0.869512 3.79975 1.64827 4.57835 2.6087 4.57835C3.56912 4.57835 4.34788 3.79975 4.34788 2.83916C4.34788 1.87874 3.56912 1.10014 2.6087 1.10014Z" fill="black"/>
</g>
<defs>
<clipPath id="clip0_552_773">
<rect width="20" height="20" fill="white"/>
</clipPath>
</defs>
</svg>
