<svg width="24" height="25" viewBox="0 0 24 25" fill="none" xmlns="http://www.w3.org/2000/svg">
<rect y="0.472656" width="24" height="24" rx="4.5" fill="url(#paint0_linear_439_13141)"/>
<g opacity="0.302">
<path d="M12.3487 11.1401H11.6513V12.1238H10.6669V12.8211H11.6513V13.8055H12.3487V12.8211H13.3317V12.1238H12.3487V11.1401Z" fill="white"/>
<path d="M12.0001 5.27344H9.36475V12.125H7.24271V12.8223H9.36762V13.806H10.0649V5.97076H11.998C12.5088 5.97207 12.9984 6.17497 13.3604 6.53535C13.7224 6.89573 13.9274 7.38444 13.931 7.89521V9.24405H14.6312V7.8945C14.6274 7.19878 14.3487 6.53278 13.8558 6.04177C13.3629 5.55075 12.6959 5.27456 12.0001 5.27344Z" fill="white"/>
<path d="M12.348 7.71586H11.6506V9.84077H10.6669V10.5381H18.5022V12.4711C18.5009 12.9819 18.298 13.4715 17.9376 13.8335C17.5772 14.1955 17.0885 14.4006 16.5777 14.4042H15.2296V15.1044H16.5792C17.2756 15.1006 17.9423 14.8213 18.4334 14.3274C18.9245 13.8336 19.2002 13.1655 19.2002 12.469V9.83576H12.3487V7.71586" fill="white"/>
<path d="M14.6376 11.1401H13.936V18.9753H12.0029C11.4922 18.9738 11.0027 18.7709 10.6407 18.4105C10.2788 18.0502 10.0736 17.5616 10.0699 17.0509V15.7028H9.36825V17.0523C9.37204 17.7488 9.65136 18.4154 10.1452 18.9066C10.639 19.3977 11.3072 19.6734 12.0036 19.6734H14.6376V12.8218H16.7625V12.1245H14.6376V11.1401Z" fill="white"/>
<path d="M8.77066 9.84164H7.42111C6.72514 9.84542 6.05893 10.1244 5.56787 10.6176C5.07682 11.1108 4.80079 11.7782 4.80005 12.4742V15.111H11.6516V17.2352H12.3489V15.111H13.3326V14.4093H5.49738V12.4763C5.49869 11.9654 5.70169 11.4757 6.06222 11.1137C6.42275 10.7517 6.91164 10.5467 7.42254 10.5433H8.77066V9.84164Z" fill="white"/>
</g>
<path d="M14.6302 12.1234H10.6675V12.8207H14.6302V12.1234Z" fill="white"/>
<path d="M10.0638 9.83789H9.36646V15.1058H10.0638V9.83789Z" fill="white"/>
<path d="M14.6328 9.8407H10.67V10.538H14.6328V9.8407Z" fill="white"/>
<path d="M14.6252 14.4068H10.6647V15.1041H14.6252V14.4068Z" fill="white"/>
<defs>
<linearGradient id="paint0_linear_439_13141" x1="0" y1="0.472656" x2="39.0485" y2="16.9273" gradientUnits="userSpaceOnUse">
<stop stop-color="#6D68FE"/>
<stop offset="1" stop-color="#B446FF"/>
</linearGradient>
</defs>
</svg>
