<svg width="24" height="25" viewBox="0 0 24 25" fill="none" xmlns="http://www.w3.org/2000/svg">
<rect y="0.472656" width="24" height="24" rx="4.5" fill="#1717CC"/>
<path d="M13.4401 18.3197L13.431 20.3927H10.5601V17.5126H12.6367C12.6548 17.5126 12.6684 17.52 12.684 17.522C12.7728 17.5322 12.8599 17.5548 12.9429 17.5891C12.9701 17.5985 12.9966 17.6106 13.0219 17.622C13.0284 17.6267 13.0355 17.6294 13.0419 17.6341C13.1777 17.6966 13.2885 17.8055 13.3559 17.9427C13.3604 17.9501 13.3624 17.9541 13.365 17.9588C13.3778 17.9867 13.3884 18.0156 13.3967 18.0453C13.4036 18.0652 13.4088 18.0856 13.4122 18.1064C13.4299 18.176 13.4392 18.2477 13.4401 18.3197Z" fill="white"/>
<path d="M13.4401 4.89433V15.4609C13.4401 15.6258 13.3563 15.7685 13.1842 15.8913C13.0064 16.0152 12.7861 16.0793 12.5614 16.0726H10.5601V4.55283H12.9628C13.0834 4.55072 13.2014 4.5851 13.2978 4.65048C13.342 4.67748 13.378 4.71385 13.4028 4.75638C13.4276 4.79891 13.4404 4.84629 13.4401 4.89433Z" fill="white"/>
</svg>
