<svg width="24" height="25" viewBox="0 0 24 25" fill="none" xmlns="http://www.w3.org/2000/svg">
<rect y="0.472656" width="24" height="24" rx="4.5" fill="#1806FC"/>
<path d="M10.2173 17.6C10.6935 18.0626 11.2853 18.2939 11.9927 18.2939C12.7001 18.2939 13.2919 18.0626 13.7681 17.6C14.2442 17.1239 14.4823 16.5049 14.4823 15.7431C14.4823 15.0084 14.2442 14.4098 13.7681 13.9473C13.2919 13.4847 12.7001 13.2535 11.9927 13.2535C11.2853 13.2535 10.6935 13.4847 10.2173 13.9473C9.7412 14.4098 9.50312 15.0084 9.50312 15.7431C9.50312 16.5049 9.7412 17.1239 10.2173 17.6ZM15.5026 19.3346C14.5503 20.2597 13.3804 20.7222 11.9927 20.7222C10.6051 20.7222 9.4283 20.2597 8.46239 19.3346C7.51009 18.4095 7.03394 17.2123 7.03394 15.7431C7.03394 14.2738 7.51009 13.0834 8.46239 12.1719C9.4283 11.2604 10.6051 10.8047 11.9927 10.8047C13.3804 10.8047 14.5503 11.2604 15.5026 12.1719C16.4685 13.0834 16.9515 14.2738 16.9515 15.7431C16.9515 17.2123 16.4685 18.4095 15.5026 19.3346Z" fill="white"/>
<path d="M9.33571 8.85677C9.31108 8.87761 9.27371 8.85724 9.27788 8.82525L9.84513 4.47045C9.84917 4.43945 9.88853 4.42859 9.90788 4.45314L12.5889 7.85297C12.6083 7.87758 12.5884 7.91339 12.5573 7.90993L10.7139 7.70524C10.7043 7.70416 10.6946 7.70711 10.6872 7.71337L9.33571 8.85677Z" fill="white"/>
<path d="M9.33571 8.85677C9.31108 8.87761 9.27371 8.85724 9.27788 8.82525L9.84513 4.47045C9.84917 4.43945 9.88853 4.42859 9.90788 4.45314L12.5889 7.85297C12.6083 7.87758 12.5884 7.91339 12.5573 7.90993L10.7139 7.70524C10.7043 7.70416 10.6946 7.70711 10.6872 7.71337L9.33571 8.85677Z" stroke="white" stroke-width="0.392406"/>
<path d="M9.98509 4.28545C9.89496 4.17115 9.71172 4.22169 9.69292 4.36603L9.10306 8.89439C9.08365 9.04333 9.25766 9.13816 9.37232 9.04116L10.635 7.97292C10.709 7.91026 10.8056 7.88083 10.902 7.89154L12.623 8.08264C12.7681 8.09875 12.8607 7.93199 12.7703 7.81739L9.98509 4.28545Z" stroke="white" stroke-width="0.392406"/>
<path d="M14.8166 8.52378H15.8794V8.94891H14.8166V10.0117H14.3915V8.94891H13.3286V8.52378H14.3915V7.46094H14.8166V8.52378Z" fill="white"/>
</svg>
