<svg xmlns="http://www.w3.org/2000/svg" width="120" height="24" fill="none" viewBox="0 0 120 24"><path fill="#4B22CC" d="M3.417 0c.823 0 1.637.16 2.397.469.76.31 1.452.762 2.034 1.334A6.154 6.154 0 0 1 9.206 3.8c.315.747.478 1.548.478 2.356v8.48c0 3.326 4.395 3.078 4.395 3.078l.023-5.108h9.68v4.207c0 1.84-.744 3.604-2.068 4.905a7.124 7.124 0 0 1-4.992 2.032H8.398a7.699 7.699 0 0 1-1.42 0h-.01a7.029 7.029 0 0 1-4.928-2.005 6.789 6.789 0 0 1-2.041-4.842V0h3.418Zm11.508 17.715c0 1.168-.12 2.687-1.055 4.044a5.377 5.377 0 0 1-1.092 1.158h3.944a6.284 6.284 0 0 0 4.393-1.792 6.068 6.068 0 0 0 1.825-4.318v-3.38h-8.004l-.011 4.288Zm96.597-10.313a.38.38 0 0 1 .353.232l2.347 5.464a.18.18 0 0 0 .169.11.18.18 0 0 0 .1-.03.183.183 0 0 0 .068-.08l2.249-5.453a.384.384 0 0 1 .355-.238h2.452a.379.379 0 0 1 .323.177.375.375 0 0 1 .028.366l-5.306 11.596a.392.392 0 0 1-.35.225h-2.38a.388.388 0 0 1-.384-.37.378.378 0 0 1 .041-.19l1.255-2.451a.377.377 0 0 0 0-.342l-4.106-8.466a.39.39 0 0 1-.038-.187.378.378 0 0 1 .383-.362h2.441Zm-27.34-.256c2.707 0 5.608 1.54 5.46 5.419a.265.265 0 0 1-.084.175.267.267 0 0 1-.182.072l-7.702-.003a.186.186 0 0 0-.149.075.187.187 0 0 0-.029.162c.309 1.078 1.166 1.847 2.684 1.847 1.314 0 2.019-.48 2.419-1.168a.207.207 0 0 1 .174-.104h2.533a.143.143 0 0 1 .141.113.145.145 0 0 1-.003.066c-.665 2.376-2.93 3.268-5.261 3.268-2.706 0-5.66-1.413-5.66-4.958 0-3.544 2.954-4.964 5.66-4.964ZM33.915 4.45a.387.387 0 0 1 .355.237.39.39 0 0 1 .029.148v6.807c0 2.525 1.345 2.931 3.025 2.931s3.025-.406 3.025-2.931V4.836a.387.387 0 0 1 .236-.356.387.387 0 0 1 .147-.029h2.752a.385.385 0 0 1 .385.385v6.807c0 4.77-3.044 5.424-6.545 5.424-3.502 0-6.546-.654-6.546-5.424V4.836a.386.386 0 0 1 .385-.385h2.752Zm23.868-.26c3.138 0 6.423 1.332 7.218 4.869a.387.387 0 0 1-.373.466h-2.863a.385.385 0 0 1-.372-.276c-.44-1.543-1.52-2.568-3.609-2.568-2.528 0-3.803 1.555-3.803 3.957s1.275 3.94 3.803 3.94c2.088 0 3.167-1.024 3.609-2.55a.383.383 0 0 1 .372-.276l2.863-.004a.39.39 0 0 1 .298.145.385.385 0 0 1 .075.322c-.795 3.536-4.08 4.85-7.218 4.85-3.572 0-7.375-1.712-7.376-6.43 0-4.719 3.804-6.446 7.376-6.446Zm-9.169 4.45a.36.36 0 0 1 .383.333v7.511a.362.362 0 0 1-.383.334h-2.416a.362.362 0 0 1-.385-.334v-7.51a.361.361 0 0 1 .385-.333h2.416Zm20.698-4.194a.382.382 0 0 1 .383.384v3.347c0 .04.011.08.034.115a.21.21 0 0 0 .318.036c.558-.546 1.586-1.201 3.115-1.201 2.423 0 3.944 1.325 3.945 3.445l-.001 5.858a.382.382 0 0 1-.384.383h-2.415a.385.385 0 0 1-.385-.383v-5.146c0-1.042-.654-1.838-2.07-1.838-1.415 0-2.157.796-2.157 1.838v5.146a.386.386 0 0 1-.236.354.39.39 0 0 1-.147.03h-2.417a.386.386 0 0 1-.384-.384V4.83a.384.384 0 0 1 .384-.384h2.416Zm34.653 2.687c2.423 0 3.785 1.325 3.785 3.445l.011 5.85a.383.383 0 0 1-.385.386h-2.434a.39.39 0 0 1-.271-.113.374.374 0 0 1-.112-.272v-5.146c0-1.378-.761-1.838-1.738-1.838-.976 0-1.822.513-1.822 1.838v5.146a.391.391 0 0 1-.111.272.398.398 0 0 1-.273.112H98.2a.386.386 0 0 1-.385-.384v-5.146c0-1.378-.76-1.838-1.737-1.838-.977 0-1.822.513-1.822 1.838v5.146a.386.386 0 0 1-.384.384h-2.416a.388.388 0 0 1-.271-.112.382.382 0 0 1-.113-.272V8.62a1.218 1.218 0 0 1 1.219-1.218h1.581a.38.38 0 0 1 .272.113.379.379 0 0 1 .112.27v.665a.08.08 0 0 0 .054.073.078.078 0 0 0 .087-.026 3.61 3.61 0 0 1 2.832-1.363c1.589 0 2.729.577 3.318 1.572a.078.078 0 0 0 .059.038.084.084 0 0 0 .037-.006.081.081 0 0 0 .029-.022c.364-.47 1.585-1.582 3.293-1.582ZM84.18 9.31c-1.283 0-2.102.566-2.506 1.396a.183.183 0 0 0 .078.241.185.185 0 0 0 .09.024h4.552a.188.188 0 0 0 .184-.166c.003-.03 0-.06-.012-.088-.347-.848-1.08-1.407-2.386-1.407Zm-60.4-.453h-9.684v-3.32a5.49 5.49 0 0 1 1.651-3.915A5.686 5.686 0 0 1 19.731 0h4.048v8.857Zm24.833-4.671a.386.386 0 0 1 .383.384v2.461a.382.382 0 0 1-.383.383h-2.416a.386.386 0 0 1-.272-.111.384.384 0 0 1-.112-.272V5.435a1.25 1.25 0 0 1 1.25-1.25h1.55Z"/></svg>