<svg width="138" height="24" viewBox="0 0 138 24" fill="none" xmlns="http://www.w3.org/2000/svg">
<path d="M13.962 17.8802C13.962 17.8802 9.60325 18.1297 9.60325 14.7735V6.21328C9.60355 5.39725 9.44303 4.58922 9.13089 3.83525C8.81874 3.08128 8.36108 2.39614 7.78406 1.81911C7.20704 1.24209 6.52197 0.784459 5.768 0.472313C5.01403 0.160167 4.20594 -0.00029499 3.38991 4.07106e-07H0V17.0597C-9.69844e-08 18.8914 0.727491 20.6482 2.0225 21.9436C3.3175 23.239 5.074 23.9671 6.90571 23.9677H6.91695C7.38578 24.0108 7.85757 24.0108 8.3264 23.9677H16.5809C18.4382 23.9671 20.2193 23.2289 21.5324 21.9153C22.8456 20.6017 23.5833 18.8204 23.5833 16.9631V12.7189H13.9823L13.962 17.8802ZM14.8117 13.5552H22.7493V16.9653C22.7481 18.6011 22.0979 20.1696 20.9414 21.3265C19.7849 22.4834 18.2167 23.1342 16.5809 23.136H12.6672C13.0836 22.8013 13.448 22.4066 13.7485 21.9648C14.6769 20.5958 14.796 19.0626 14.796 17.8847L14.8117 13.5552Z" fill="white"/>
<path d="M19.5679 0.00195312C18.0858 0.00195312 16.6643 0.590715 15.6163 1.63875C14.5683 2.68678 13.9795 4.10821 13.9795 5.59035V8.94209H23.5827V0.00195312H19.5679Z" fill="white"/>
<path d="M47.2604 4.7793C47.3796 4.7793 47.494 4.8267 47.5783 4.91101C47.6626 4.99533 47.71 5.10965 47.71 5.22889V13.2563C47.71 18.8762 44.1268 19.6563 39.9995 19.6563C35.8723 19.6563 32.2891 18.8852 32.2891 13.2563V5.22889C32.2891 5.10965 32.3364 4.99533 32.4207 4.91101C32.5051 4.8267 32.6194 4.7793 32.7387 4.7793H35.9802C36.0994 4.7793 36.2138 4.8267 36.2981 4.91101C36.3824 4.99533 36.4298 5.10965 36.4298 5.22889V13.2563C36.4298 16.2371 38.0034 16.716 39.9928 16.716C41.9822 16.716 43.5558 16.2371 43.5558 13.2563V5.22889C43.5558 5.10965 43.6032 4.99533 43.6875 4.91101C43.7718 4.8267 43.8861 4.7793 44.0054 4.7793H47.2604Z" fill="white"/>
<path d="M50.4574 9.7254H53.3033C53.4148 9.71918 53.5243 9.75691 53.6083 9.83044C53.6924 9.90397 53.7442 10.0075 53.7529 10.1188V18.978C53.7442 19.0894 53.6924 19.1928 53.6083 19.2664C53.5243 19.3399 53.4148 19.3776 53.3033 19.3714H50.4574C50.3458 19.3782 50.236 19.3407 50.1518 19.267C50.0676 19.1934 50.0159 19.0896 50.0078 18.978V10.1188C50.0159 10.0072 50.0676 9.90343 50.1518 9.82978C50.236 9.75613 50.3458 9.71859 50.4574 9.7254Z" fill="white"/>
<path d="M68.7979 13.3867H72.1698C72.2384 13.385 72.3065 13.3989 72.3689 13.4276C72.4312 13.4562 72.4862 13.4987 72.5296 13.5518C72.573 13.605 72.6037 13.6674 72.6192 13.7343C72.6348 13.8011 72.6348 13.8707 72.6194 13.9375C71.682 18.1075 67.8133 19.6608 64.1154 19.6608C59.9072 19.6608 55.4248 17.6377 55.4248 12.074C55.4248 6.51027 59.9072 4.4668 64.1154 4.4668C67.8133 4.4668 71.682 6.04043 72.6194 10.2104C72.6348 10.2773 72.6348 10.3467 72.6192 10.4136C72.6037 10.4804 72.573 10.5428 72.5296 10.596C72.4862 10.6492 72.4312 10.6916 72.3689 10.7203C72.3065 10.7489 72.2384 10.7628 72.1698 10.7611H68.7979C68.6999 10.7614 68.6045 10.7298 68.5262 10.671C68.4479 10.6121 68.3909 10.5294 68.364 10.4352C67.8447 8.61435 66.5657 7.40495 64.1131 7.40495C61.1346 7.40495 59.633 9.23929 59.633 12.074C59.633 14.9086 61.1346 16.7205 64.1131 16.7205C66.5859 16.7205 67.8447 15.5134 68.364 13.7127C68.3909 13.6186 68.4479 13.5357 68.5262 13.4769C68.6045 13.418 68.6999 13.3864 68.7979 13.3867Z" fill="white"/>
<path d="M86.8717 12.011V18.9167C86.8717 19.036 86.8244 19.1503 86.74 19.2346C86.6557 19.3189 86.5414 19.3663 86.4221 19.3663H83.5762C83.457 19.3663 83.3426 19.3189 83.2583 19.2346C83.174 19.1503 83.1266 19.036 83.1266 18.9167V12.8473C83.1266 11.6176 82.3556 10.6802 80.6899 10.6802C79.0241 10.6802 78.1474 11.6176 78.1474 12.8473V18.9167C78.1474 19.036 78.1001 19.1503 78.0158 19.2346C77.9314 19.3189 77.8171 19.3663 77.6978 19.3663H74.8519C74.7327 19.3663 74.6183 19.3189 74.534 19.2346C74.4497 19.1503 74.4023 19.036 74.4023 18.9167V5.22889C74.4023 5.10965 74.4497 4.99533 74.534 4.91101C74.6183 4.8267 74.7327 4.7793 74.8519 4.7793H77.6821C77.8013 4.7793 77.9157 4.8267 78 4.91101C78.0843 4.99533 78.1317 5.10965 78.1317 5.22889V9.18301C78.1317 9.2309 78.1458 9.27772 78.1722 9.31769C78.1985 9.35767 78.236 9.38914 78.28 9.40803C78.324 9.42692 78.3726 9.43247 78.4198 9.42406C78.4669 9.41564 78.5106 9.39356 78.5453 9.36061C79.5341 8.42238 80.8535 7.91257 82.2162 7.94214C85.0711 7.94214 86.8627 9.51573 86.8627 12.0065" fill="white"/>
<path d="M92.2556 14.6363C92.2221 14.6376 92.1892 14.6463 92.1595 14.662C92.1298 14.6776 92.1039 14.6998 92.0839 14.7267C92.0638 14.7537 92.05 14.7847 92.0436 14.8177C92.0371 14.8507 92.0382 14.8847 92.0466 14.9173C92.4108 16.1896 93.4201 17.0955 95.2072 17.0955C96.7583 17.0955 97.5878 16.5291 98.0576 15.7176C98.0786 15.6811 98.1087 15.6508 98.145 15.6295C98.1812 15.6082 98.2224 15.5968 98.2644 15.5962H101.245C101.271 15.5956 101.296 15.601 101.319 15.612C101.342 15.6229 101.362 15.639 101.378 15.6591C101.394 15.6791 101.404 15.7026 101.409 15.7275C101.415 15.7525 101.414 15.7783 101.407 15.803C100.623 18.6062 97.9542 19.6605 95.2072 19.6605C92.0196 19.6605 88.5398 17.9924 88.5398 13.8045C88.5398 9.61654 92.0196 7.94629 95.2072 7.94629C98.3948 7.94629 101.814 9.76487 101.643 14.3395C101.639 14.42 101.604 14.4958 101.545 14.5511C101.487 14.6064 101.409 14.637 101.328 14.6363H92.2556ZM92.4535 12.4692H97.8171C97.8521 12.4677 97.8863 12.458 97.9169 12.4409C97.9476 12.4238 97.9738 12.3997 97.9934 12.3706C98.0131 12.3416 98.0257 12.3083 98.0302 12.2735C98.0347 12.2387 98.031 12.2033 98.0194 12.1702C97.6103 11.1699 96.747 10.5112 95.2072 10.5112C93.6674 10.5112 92.7344 11.1857 92.2556 12.159C92.2419 12.1924 92.2364 12.2286 92.2396 12.2645C92.2427 12.3004 92.2545 12.3351 92.2739 12.3655C92.2933 12.3959 92.3198 12.4212 92.351 12.4392C92.3823 12.4573 92.4174 12.4676 92.4535 12.4692Z" fill="white"/>
<path d="M122.99 12.0115V18.9172C122.99 19.0365 122.942 19.1508 122.858 19.2351C122.774 19.3194 122.659 19.3668 122.54 19.3668H119.674C119.555 19.3668 119.44 19.3194 119.356 19.2351C119.272 19.1508 119.224 19.0365 119.224 18.9172V12.8477C119.224 11.2225 118.325 10.6807 117.183 10.6807C116.041 10.6807 115.037 11.2854 115.037 12.8477V18.9172C115.037 19.0365 114.989 19.1508 114.905 19.2351C114.821 19.3194 114.706 19.3668 114.587 19.3668H111.741C111.622 19.3668 111.507 19.3194 111.423 19.2351C111.339 19.1508 111.291 19.0365 111.291 18.9172V12.8477C111.291 11.2225 110.392 10.6807 109.25 10.6807C108.108 10.6807 107.103 11.2854 107.103 12.8477V18.9172C107.103 19.0365 107.056 19.1508 106.972 19.2351C106.887 19.3194 106.773 19.3668 106.654 19.3668H103.808C103.689 19.3668 103.574 19.3194 103.49 19.2351C103.406 19.1508 103.358 19.0365 103.358 18.9172V9.7006C103.358 9.51207 103.396 9.32538 103.468 9.15123C103.54 8.97708 103.646 8.81882 103.779 8.68562C103.913 8.55241 104.071 8.44682 104.245 8.37487C104.42 8.30293 104.606 8.26602 104.795 8.26632H106.656C106.775 8.26632 106.89 8.31372 106.974 8.39803C107.058 8.48235 107.106 8.59667 107.106 8.71591V9.5005C107.106 9.51947 107.112 9.53794 107.123 9.5533C107.134 9.56865 107.15 9.58019 107.168 9.58634C107.186 9.59248 107.205 9.59284 107.224 9.58754C107.242 9.58225 107.258 9.57151 107.27 9.5567C107.669 9.0553 108.177 8.65059 108.754 8.37268C109.332 8.09476 109.965 7.95078 110.606 7.95163C112.478 7.95163 113.827 8.62607 114.517 9.8085C114.525 9.82102 114.537 9.83123 114.55 9.83835C114.563 9.84547 114.578 9.84922 114.593 9.84922C114.607 9.84922 114.622 9.84547 114.635 9.83835C114.649 9.83123 114.66 9.82102 114.668 9.8085C115.095 9.2555 116.534 7.94043 118.546 7.94043C121.403 7.94043 123.008 9.51402 123.008 12.0048" fill="white"/>
<path d="M137.368 8.90235L131.112 22.5857C131.076 22.6645 131.018 22.7312 130.945 22.7779C130.872 22.8246 130.787 22.8491 130.7 22.8487H127.897C127.819 22.8498 127.742 22.8307 127.674 22.7932C127.606 22.7556 127.548 22.701 127.508 22.6345C127.467 22.5681 127.444 22.4922 127.441 22.4142C127.439 22.3363 127.456 22.2591 127.493 22.1901L128.972 19.2992C129.003 19.2364 129.02 19.1671 129.02 19.0969C129.02 19.0266 129.003 18.9573 128.972 18.8946L124.132 8.91135C124.098 8.84231 124.082 8.76564 124.086 8.68864C124.089 8.61164 124.113 8.53687 124.154 8.47163C124.195 8.40639 124.252 8.35287 124.32 8.3161C124.388 8.27933 124.464 8.26065 124.541 8.26177H127.416C127.505 8.26121 127.591 8.28671 127.665 8.33509C127.739 8.38347 127.797 8.45256 127.832 8.53376L130.597 14.9786C130.616 15.0149 130.645 15.0452 130.68 15.0663C130.715 15.0875 130.755 15.0987 130.796 15.0987C130.837 15.0987 130.877 15.0875 130.912 15.0663C130.947 15.0452 130.976 15.0149 130.995 14.9786L133.643 8.54276C133.677 8.45959 133.736 8.38851 133.81 8.33882C133.885 8.28913 133.974 8.26306 134.063 8.26396H136.952C137.028 8.26321 137.103 8.28182 137.17 8.31797C137.237 8.35411 137.294 8.40663 137.335 8.47065C137.376 8.53466 137.4 8.60801 137.405 8.68392C137.41 8.75982 137.396 8.83579 137.363 8.90465" fill="white"/>
<path d="M50.0052 5.94185V7.82342C50.0052 7.94266 50.0525 8.05698 50.1369 8.1413C50.2212 8.22561 50.3355 8.27301 50.4548 8.27301H53.3007C53.4199 8.27301 53.5343 8.22561 53.6186 8.1413C53.7029 8.05698 53.7503 7.94266 53.7503 7.82342V4.92127C53.7503 4.80203 53.7029 4.68771 53.6186 4.6034C53.5343 4.51908 53.4199 4.47168 53.3007 4.47168H51.4776C51.0865 4.47168 50.7114 4.62705 50.4348 4.9036C50.1583 5.18015 50.0029 5.55525 50.0029 5.94635" fill="white"/>
</svg>
